amarna.glyphspackage
{
glyphname = quotesingle;
kernLeft = quote;
kernRight = quote;
layers = (
{
layerId = m002;
shapes = (
{
closed = 1;
nodes = (
(60,500,l),
(110,500,l),
(140,726,l),
(130,740,l),
(60,740,l)
);
}
);
width = 210;
},
{
layerId = m003;
shapes = (
{
closed = 1;
nodes = (
(101,500,l),
(151,500,l),
(213,726,l),
(205,740,l),
(135,740,l)
);
}
);
width = 212;
},
{
layerId = m006;
shapes = (
{
closed = 1;
nodes = (
(60,500,l),
(90,500,l),
(100,735,l),
(95,740,l),
(60,740,l)
);
}
);
width = 165;
},
{
layerId = m007;
shapes = (
{
closed = 1;
nodes = (
(101,500,l),
(125,500,l),
(174,735,l),
(170,740,l),
(135,740,l)
);
}
);
width = 172;
},
{
layerId = m008;
shapes = (
{
closed = 1;
nodes = (
(50,500,l),
(120,500,l),
(150,726,l),
(140,740,l),
(50,740,l)
);
}
);
width = 210;
},
{
layerId = m009;
shapes = (
{
closed = 1;
nodes = (
(101,500,l),
(171,500,l),
(233,726,l),
(225,740,l),
(135,740,l)
);
}
);
width = 232;
}
);
unicode = 39;
}
{
glyphname = hyphen;
kernLeft = dash;
kernRight = dash;
layers = (
{
layerId = m002;
shapes = (
{
closed = 1;
nodes = (
(340,290,l),
(200,285,l),
(60,290,l),
(60,210,l),
(200,215,l),
(340,210,l)
);
}
);
width = 400;
},
{
layerId = m003;
shapes = (
{
closed = 1;
nodes = (
(340,290,l),
(200,285,l),
(60,290,l),
(60,210,l),
(200,215,l),
(340,210,l)
);
}
);
width = 400;
},
{
layerId = m006;
shapes = (
{
closed = 1;
nodes = (
(340,268,l),
(200,265,l),
(60,268,l),
(60,232,l),
(200,235,l),
(340,232,l)
);
}
);
width = 400;
},
{
layerId = m007;
shapes = (
{
closed = 1;
nodes = (
(340,268,l),
(200,265,l),
(60,268,l),
(60,232,l),
(200,235,l),
(340,232,l)
);
}
);
width = 400;
},
{
layerId = m008;
shapes = (
{
closed = 1;
nodes = (
(340,300,l),
(200,295,l),
(60,300,l),
(60,200,l),
(200,205,l),
(340,200,l)
);
}
);
width = 400;
},
{
layerId = m009;
shapes = (
{
closed = 1;
nodes = (
(340,300,l),
(200,295,l),
(60,300,l),
(60,200,l),
(200,205,l),
(340,200,l)
);
}
);
width = 400;
}
);
unicode = 45;
}
{
glyphname = slash;
layers = (
{
layerId = m002;
shapes = (
{
closed = 1;
nodes = (
(20,-40,l),
(90,-50,l),
(320,790,l),
(250,800,l)
);
}
);
width = 340;
},
{
layerId = m003;
shapes = (
{
closed = 1;
nodes = (
(-21,-40,l),
(48,-50,l),
(396,790,l),
(327,800,l)
);
}
);
width = 340;
},
{
layerId = m006;
shapes = (
{
closed = 1;
nodes = (
(20,-40,l),
(50,-45,l),
(280,795,l),
(250,800,l)
);
}
);
width = 300;
},
{
layerId = m007;
shapes = (
{
closed = 1;
nodes = (
(-21,-40,l),
(8,-45,l),
(357,795,l),
(327,800,l)
);
}
);
width = 300;
},
{
layerId = m008;
shapes = (
{
closed = 1;
nodes = (
(10,-30,l),
(100,-60,l),
(330,780,l),
(240,810,l)
);
}
);
width = 340;
},
{
layerId = m009;
shapes = (
{
closed = 1;
nodes = (
(-29,-20,l),
(56,-60,l),
(404,780,l),
(319,820,l)
);
}
);
width = 340;
}
);
unicode = 47;
}
{
glyphname = one;
layers = (
{
layerId = m002;
shapes = (
{
closed = 1;
nodes = (
(115,500,l),
(105,0,l),
(185,0,l),
(185,700,l),
(170,710,l),
(90,670,l)
);
}
);
width = 295;
},
{
layerId = m003;
shapes = (
{
closed = 1;
nodes = (
(160,500,l),
(80,0,l),
(160,0,l),
(258,700,l),
(245,710,l),
(159,670,l)
);
}
);
width = 315;
},
{
background = {
shapes = (
{
closed = 1;
nodes = (
(120,600,l),
(115,0,l),
(150,0,l),
(150,705,l),
(135,710,l),
(90,670,l)
);
}
);
};
layerId = m006;
shapes = (
{
closed = 1;
nodes = (
(120,600,l),
(115,0,l),
(150,0,l),
(150,705,l),
(135,710,l),
(100,680,l)
);
}
);
width = 295;
},
{
layerId = m007;
shapes = (
{
closed = 1;
nodes = (
(155,600,l),
(66,0,l),
(101,0,l),
(200,705,l),
(186,710,l),
(145,680,l)
);
}
);
width = 295;
},
{
layerId = m008;
shapes = (
{
closed = 1;
nodes = (
(105,500,l),
(95,0,l),
(200,0,l),
(200,700,l),
(185,710,l),
(80,670,l)
);
}
);
width = 295;
},
{
layerId = m009;
shapes = (
{
closed = 1;
nodes = (
(140,500,l),
(60,0,l),
(165,0,l),
(263,700,l),
(250,710,l),
(139,670,l)
);
}
);
width = 295;
}
);
unicode = 49;
}
{
glyphname = at;
layers = (
{
background = {
shapes = (
{
closed = 1;
nodes = (
(668,8,l),
(668,110,l),
(731,520,l),
(633,500,l),
(637,453,l),
(616,270,l),
(583,72,l),
(581,-10,l)
);
},
{
closed = 1;
nodes = (
(459,-20,o),
(519,-5,o),
(617,69,c),
(624,130,l),
(563,74,o),
(510,51,o),
(473,51,cs),
(390,51,o),
(357,148,o),
(372,256,cs),
(389,380,o),
(449,450,o),
(530,450,cs),
(568,450,o),
(611,436,o),
(657,415,c),
(717,475,l),
(681,492,o),
(628,515,o),
(576,515,cs),
(442,515,o),
(309,404,o),
(288,248,cs),
(266,81,o),
(343,-20,o),
(419,-20,cs)
);
}
);
};
layerId = m002;
shapes = (
{
closed = 1;
nodes = (
(557,-260,o),
(693,-216,o),
(821,-127,c),
(818,-75,l),
(708,-145,o),
(601,-181,o),
(500,-181,cs),
(328,-181,o),
(150,-72,o),
(136,154,cs),
(94,819,o),
(987,858,o),
(904,264,cs),
(886,134,o),
(788,-4,o),
(609,59,c),
(581,-10,l),
(777,-46,o),
(968,85,o),
(998,303,cs),
(1027,521,o),
(867,750,o),
(598,750,cs),
(315,750,o),
(8,488,o),
(31,151,cs),
(46,-87,o),
(244,-260,o),
(437,-260,cs)
);
},
{
closed = 1;
nodes = (
(459,-20,o),
(519,-5,o),
(617,69,c),
(624,130,l),
(563,74,o),
(510,51,o),
(473,51,cs),
(390,51,o),
(357,148,o),
(372,256,cs),
(389,380,o),
(449,450,o),
(530,450,cs),
(568,450,o),
(611,436,o),
(657,415,c),
(717,475,l),
(681,492,o),
(628,515,o),
(576,515,cs),
(442,515,o),
(309,404,o),
(288,248,cs),
(266,81,o),
(343,-20,o),
(419,-20,cs)
);
},
{
closed = 1;
nodes = (
(668,8,l),
(668,110,l),
(731,520,l),
(633,500,l),
(637,453,l),
(616,270,l),
(583,72,l),
(581,-10,l)
);
}
);
width = 1025;
},
{
background = {
shapes = (
{
closed = 1;
nodes = (
(569,676,l),
(765,676,o),
(964,516,o),
(922,204,cs),
(911,124,o),
(885,58,o),
(849,4,c),
(933,4,l),
(980,74,o),
(1013,155,o),
(1025,243,cs),
(1063,511,o),
(863,750,o),
(614,750,c)
);
}
);
};
layerId = m003;
shapes = (
{
closed = 1;
nodes = (
(537,-260,o),
(675,-216,o),
(806,-127,c),
(805,-75,l),
(692,-145,o),
(584,-181,o),
(483,-181,cs),
(311,-181,o),
(137,-72,o),
(131,154,cs),
(112,819,o),
(1007,858,o),
(903,264,cs),
(880,134,o),
(777,-4,o),
(601,59,c),
(570,-10,l),
(765,-46,o),
(961,85,o),
(998,303,cs),
(1035,521,o),
(883,750,o),
(614,750,cs),
(331,750,o),
(15,488,o),
(26,151,cs),
(33,-87,o),
(224,-260,o),
(417,-260,cs)
);
},
{
closed = 1;
nodes = (
(448,-20,o),
(508,-5,o),
(609,69,c),
(618,130,l),
(555,74,o),
(501,51,o),
(464,51,cs),
(381,51,o),
(352,148,o),
(370,256,cs),
(392,380,o),
(454,450,o),
(535,450,cs),
(573,450,o),
(616,436,o),
(661,415,c),
(723,475,l),
(688,492,o),
(636,515,o),
(584,515,cs),
(450,515,o),
(313,404,o),
(286,248,cs),
(258,81,o),
(332,-20,o),
(408,-20,cs)
);
},
{
closed = 1;
nodes = (
(658,8,l),
(661,110,l),
(739,520,l),
(640,500,l),
(642,453,l),
(615,270,l),
(575,72,l),
(570,-10,l)
);
}
);
width = 1016;
},
{
background = {
shapes = (
{
closed = 1;
nodes = (
(668,8,l),
(668,110,l),
(731,520,l),
(633,500,l),
(637,453,l),
(616,270,l),
(583,72,l),
(581,-10,l)
);
},
{
closed = 1;
nodes = (
(459,-20,o),
(519,-5,o),
(617,69,c),
(624,130,l),
(563,74,o),
(510,51,o),
(473,51,cs),
(390,51,o),
(357,148,o),
(372,256,cs),
(389,380,o),
(449,450,o),
(530,450,cs),
(568,450,o),
(611,436,o),
(657,415,c),
(717,475,l),
(681,492,o),
(628,515,o),
(576,515,cs),
(442,515,o),
(309,404,o),
(288,248,cs),
(266,81,o),
(343,-20,o),
(419,-20,cs)
);
}
);
};
layerId = m006;
shapes = (
{
closed = 1;
nodes = (
(557,-260,o),
(693,-216,o),
(821,-127,c),
(818,-105,l),
(687,-190,o),
(566,-226,o),
(461,-226,cs),
(211,-226,o),
(42,-3,o),
(75,254,cs),
(153,849,o),
(1037,888,o),
(957,274,cs),
(937,124,o),
(808,-24,o),
(629,19,c),
(612,-10,l),
(808,-46,o),
(968,85,o),
(998,303,cs),
(1027,521,o),
(867,750,o),
(598,750,cs),
(348,750,o),
(79,546,o),
(36,266,cs),
(-11,-38,o),
(219,-260,o),
(437,-260,cs)
);
},
{
closed = 1;
nodes = (
(509,-18,o),
(575,20,o),
(640,84,c),
(645,122,l),
(587,59,o),
(514,14,o),
(467,14,cs),
(354,14,o),
(324,134,o),
(339,239,cs),
(359,385,o),
(461,486,o),
(579,486,cs),
(611,486,o),
(651,476,o),
(685,460,c),
(702,492,l),
(691,498,o),
(645,515,o),
(593,515,cs),
(459,515,o),
(322,404,o),
(297,228,cs),
(277,85,o),
(354,-18,o),
(444,-18,cs)
);
},
{
closed = 1;
nodes = (
(647,0,l),
(661,190,l),
(711,515,l),
(668,503,l),
(672,482,l),
(630,184,l),
(617,73,l),
(612,-10,l)
);
}
);
width = 1025;
},
{
background = {
shapes = (
{
closed = 1;
nodes = (
(46,-87,o),
(244,-260,o),
(437,-260,cs),
(557,-260,o),
(693,-216,o),
(821,-127,c),
(818,-75,l),
(708,-145,o),
(601,-181,o),
(500,-181,cs),
(328,-181,o),
(150,-72,o),
(136,154,cs),
(94,819,o),
(987,858,o),
(904,264,cs),
(886,134,o),
(788,-4,o),
(609,59,c),
(581,-10,l),
(777,-46,o),
(968,85,o),
(998,303,cs),
(1027,521,o),
(867,750,o),
(598,750,cs),
(315,750,o),
(8,488,o),
(31,151,cs)
);
},
{
closed = 1;
nodes = (
(668,8,l),
(668,110,l),
(731,520,l),
(633,500,l),
(637,453,l),
(616,270,l),
(583,72,l),
(581,-10,l)
);
},
{
closed = 1;
nodes = (
(459,-20,o),
(519,-5,o),
(617,69,c),
(624,130,l),
(563,74,o),
(510,51,o),
(473,51,cs),
(390,51,o),
(357,148,o),
(372,256,cs),
(389,380,o),
(449,450,o),
(530,450,cs),
(568,450,o),
(611,436,o),
(657,415,c),
(717,475,l),
(681,492,o),
(628,515,o),
(576,515,cs),
(442,515,o),
(309,404,o),
(288,248,cs),
(266,81,o),
(343,-20,o),
(419,-20,cs)
);
}
);
};
layerId = m007;
shapes = (
{
closed = 1;
nodes = (
(537,-260,o),
(674,-216,o),
(806,-127,c),
(803,-105,l),
(669,-190,o),
(547,-226,o),
(442,-226,cs),
(192,-226,o),
(31,-3,o),
(73,254,cs),
(172,849,o),
(1057,888,o),
(956,274,cs),
(930,124,o),
(796,-24,o),
(619,19,c),
(601,-10,l),
(795,-46,o),
(960,85,o),
(998,303,cs),
(1034,521,o),
(882,750,o),
(613,750,cs),
(363,750,o),
(87,546,o),
(34,266,cs),
(-23,-38,o),
(199,-260,o),
(417,-260,cs)
);
},
{
closed = 1;
nodes = (
(497,-18,o),
(565,20,o),
(632,84,c),
(638,122,l),
(578,59,o),
(504,14,o),
(457,14,cs),
(344,14,o),
(318,134,o),
(336,239,cs),
(361,385,o),
(467,486,o),
(585,486,cs),
(617,486,o),
(657,476,o),
(690,460,c),
(708,492,l),
(697,498,o),
(652,515,o),
(600,515,cs),
(466,515,o),
(325,404,o),
(294,228,cs),
(269,85,o),
(342,-18,o),
(432,-18,cs)
);
},
{
closed = 1;
nodes = (
(636,0,l),
(657,190,l),
(718,515,l),
(675,503,l),
(678,482,l),
(625,184,l),
(609,73,l),
(601,-10,l)
);
}
);
width = 1025;
},
{
background = {
shapes = (
{
closed = 1;
nodes = (
(668,8,l),
(668,110,l),
(731,520,l),
(633,500,l),
(637,453,l),
(616,270,l),
(583,72,l),
(581,-10,l)
);
},
{
closed = 1;
nodes = (
(459,-20,o),
(519,-5,o),
(617,69,c),
(624,130,l),
(563,74,o),
(510,51,o),
(473,51,cs),
(390,51,o),
(357,148,o),
(372,256,cs),
(389,380,o),
(449,450,o),
(530,450,cs),
(568,450,o),
(611,436,o),
(657,415,c),
(717,475,l),
(681,492,o),
(628,515,o),
(576,515,cs),
(442,515,o),
(309,404,o),
(288,248,cs),
(266,81,o),
(343,-20,o),
(419,-20,cs)
);
}
);
};
layerId = m008;
shapes = (
{
closed = 1;
nodes = (
(580,-265,o),
(706,-214,o),
(821,-117,c),
(818,-55,l),
(708,-125,o),
(601,-181,o),
(500,-181,cs),
(328,-181,o),
(152,-82,o),
(136,154,cs),
(95,759,o),
(957,838,o),
(880,304,cs),
(855,134,o),
(788,56,o),
(609,49,c),
(573,-10,l),
(769,-46,o),
(948,85,o),
(978,303,cs),
(1007,521,o),
(867,750,o),
(598,750,cs),
(315,750,o),
(8,488,o),
(31,151,cs),
(48,-115,o),
(239,-265,o),
(453,-265,cs)
);
},
{
closed = 1;
nodes = (
(445,-20,o),
(506,10,o),
(593,70,c),
(603,140,l),
(552,94,o),
(508,75,o),
(471,75,cs),
(398,75,o),
(362,138,o),
(377,246,cs),
(398,395,o),
(460,426,o),
(527,426,cs),
(570,426,o),
(612,409,o),
(640,390,c),
(713,475,l),
(667,492,o),
(604,515,o),
(552,515,cs),
(418,515,o),
(295,394,o),
(273,238,cs),
(250,71,o),
(329,-20,o),
(415,-20,cs)
);
},
{
closed = 1;
nodes = (
(681,10,l),
(700,230,l),
(746,520,l),
(628,500,l),
(641,450,l),
(598,184,l),
(586,92,l),
(573,-10,l)
);
}
);
width = 1025;
},
{
background = {
shapes = (
{
closed = 1;
nodes = (
(668,8,l),
(668,110,l),
(731,520,l),
(633,500,l),
(637,453,l),
(616,270,l),
(583,72,l),
(581,-10,l)
);
},
{
closed = 1;
nodes = (
(459,-20,o),
(519,-5,o),
(617,69,c),
(624,130,l),
(563,74,o),
(510,51,o),
(473,51,cs),
(390,51,o),
(357,148,o),
(372,256,cs),
(389,380,o),
(449,450,o),
(530,450,cs),
(568,450,o),
(611,436,o),
(657,415,c),
(717,475,l),
(681,492,o),
(628,515,o),
(576,515,cs),
(442,515,o),
(309,404,o),
(288,248,cs),
(266,81,o),
(343,-20,o),
(419,-20,cs)
);
}
);
};
layerId = m009;
shapes = (
{
closed = 1;
nodes = (
(561,-265,o),
(689,-214,o),
(807,-117,c),
(806,-55,l),
(694,-125,o),
(585,-181,o),
(484,-181,cs),
(312,-181,o),
(139,-82,o),
(131,154,cs),
(112,759,o),
(976,838,o),
(881,304,cs),
(850,134,o),
(780,56,o),
(601,49,c),
(563,-10,l),
(757,-46,o),
(941,85,o),
(979,303,cs),
(1015,521,o),
(883,750,o),
(614,750,cs),
(331,750,o),
(15,488,o),
(26,151,cs),
(34,-115,o),
(220,-265,o),
(434,-265,cs)
);
},
{
closed = 1;
nodes = (
(434,-20,o),
(496,10,o),
(585,70,c),
(598,140,l),
(545,94,o),
(501,75,o),
(464,75,cs),
(391,75,o),
(357,138,o),
(376,246,cs),
(402,395,o),
(465,426,o),
(532,426,cs),
(575,426,o),
(616,409,o),
(644,390,c),
(720,475,l),
(674,492,o),
(612,515,o),
(560,515,cs),
(426,515,o),
(299,394,o),
(271,238,cs),
(242,71,o),
(318,-20,o),
(404,-20,cs)
);
},
{
closed = 1;
nodes = (
(671,10,l),
(698,230,l),
(754,520,l),
(635,500,l),
(647,450,l),
(594,184,l),
(579,92,l),
(563,-10,l)
);
}
);
width = 1025;
}
);
unicode = 64;
}
{
glyphname = D;
kernLeft = I;
kernRight = O;
layers = (
{
anchors = (
{
name = bottom;
pos = (363,0);
},
{
name = center;
pos = (363,350);
},
{
name = top;
pos = (313,700);
}
);
background = {
anchors = (
{
name = bottom;
pos = (363,0);
},
{
name = center;
pos = (363,350);
},
{
name = top;
pos = (313,700);
}
);
hints = (
{
name = _corner.serif;
scale = (-0.8,1.5);
type = Corner;
},
{
name = _corner.serif;
scale = (0.8,1.5);
type = Corner;
},
{
name = _corner.mitre;
type = Corner;
},
{
name = _corner.mitre;
type = Corner;
}
);
shapes = (
{
closed = 1;
nodes = (
(85,250,l),
(75,0,l),
(301,0,ls),
(493,0,o),
(665,144,o),
(665,352,cs),
(665,521,o),
(550,700,o),
(314,700,cs),
(80,700,l)
);
},
{
closed = 1;
nodes = (
(169,635,l),
(301,640,l),
(460,640,o),
(571,531,o),
(571,336,cs),
(571,149,o),
(439,66,o),
(303,60,c),
(174,66,l),
(165,250,l)
);
}
);
};
layerId = m002;
shapes = (
{
closed = 1;
nodes = (
(85,250,l),
(75,0,l),
(301,0,ls),
(493,0,o),
(665,144,o),
(665,352,cs),
(665,521,o),
(550,700,o),
(314,700,cs),
(80,700,l)
);
},
{
closed = 1;
nodes = (
(169,635,l),
(301,640,l),
(460,640,o),
(571,531,o),
(571,336,cs),
(571,149,o),
(439,66,o),
(303,60,c),
(174,66,l),
(165,250,l)
);
}
);
width = 715;
},
{
anchors = (
{
name = bottom;
pos = (338,0);
},
{
name = center;
pos = (387,350);
},
{
name = top;
pos = (386,700);
}
);
background = {
hints = (
{
name = _corner.serif;
scale = (-0.8,1.5);
type = Corner;
},
{
name = _corner.serif;
scale = (0.8,1.5);
type = Corner;
},
{
name = _corner.mitre;
type = Corner;
},
{
name = _corner.mitre;
type = Corner;
}
);
shapes = (
{
closed = 1;
nodes = (
(75,250,l),
(12,0,l),
(238,0,ls),
(430,0,o),
(632,144,o),
(677,352,cs),
(713,521,o),
(636,700,o),
(400,700,cs),
(166,700,l)
);
},
{
closed = 1;
nodes = (
(241,635,l),
(374,640,l),
(533,640,o),
(621,531,o),
(579,336,cs),
(540,149,o),
(390,66,o),
(253,60,c),
(125,66,l),
(155,250,l)
);
}
);
};
layerId = m003;
shapes = (
{
closed = 1;
nodes = (
(95,250,l),
(50,0,l),
(276,0,ls),
(553,0,o),
(729,206,o),
(714,410,cs),
(701,592,o),
(558,700,o),
(358,700,cs),
(153,700,l)
);
},
{
closed = 1;
nodes = (
(233,635,l),
(346,640,l),
(478,640,o),
(606,575,o),
(618,397,cs),
(631,216,o),
(517,69,o),
(267,60,c),
(158,66,l),
(175,250,l)
);
}
);
width = 754;
},
{
anchors = (
{
name = bottom;
pos = (353,0);
},
{
name = center;
pos = (353,350);
},
{
name = top;
pos = (303,700);
}
);
background = {
hints = (
{
name = _corner.serif;
scale = (-0.8,1.5);
type = Corner;
},
{
name = _corner.serif;
scale = (0.8,1.5);
type = Corner;
},
{
name = _corner.mitre;
type = Corner;
},
{
name = _corner.mitre;
type = Corner;
}
);
shapes = (
{
closed = 1;
nodes = (
(75,250,l),
(65,0,l),
(291,0,ls),
(483,0,o),
(655,144,o),
(655,352,cs),
(655,521,o),
(540,700,o),
(304,700,cs),
(70,700,l)
);
},
{
closed = 1;
nodes = (
(159,635,l),
(291,640,l),
(450,640,o),
(561,531,o),
(561,336,cs),
(561,149,o),
(429,66,o),
(293,60,c),
(164,66,l),
(155,250,l)
);
}
);
};
layerId = m006;
shapes = (
{
closed = 1;
nodes = (
(75,250,l),
(72,0,l),
(291,0,ls),
(493,0,o),
(655,144,o),
(655,352,cs),
(655,521,o),
(550,700,o),
(304,700,cs),
(70,700,l)
);
},
{
closed = 1;
nodes = (
(106,668,l),
(291,670,l),
(470,670,o),
(621,571,o),
(621,336,cs),
(621,109,o),
(419,25,o),
(293,28,cs),
(109,33,l),
(105,250,l)
);
}
);
width = 705;
},
{
anchors = (
{
name = bottom;
pos = (304,0);
},
{
name = center;
pos = (353,350);
},
{
name = top;
pos = (352,700);
}
);
background = {
hints = (
{
name = _corner.serif;
scale = (-0.8,1.5);
type = Corner;
},
{
name = _corner.serif;
scale = (0.8,1.5);
type = Corner;
},
{
name = _corner.mitre;
type = Corner;
},
{
name = _corner.mitre;
type = Corner;
}
);
shapes = (
{
closed = 1;
nodes = (
(75,250,l),
(65,0,l),
(291,0,ls),
(483,0,o),
(655,144,o),
(655,352,cs),
(655,521,o),
(540,700,o),
(304,700,cs),
(70,700,l)
);
},
{
closed = 1;
nodes = (
(159,635,l),
(291,640,l),
(450,640,o),
(561,531,o),
(561,336,cs),
(561,149,o),
(429,66,o),
(293,60,c),
(164,66,l),
(155,250,l)
);
}
);
};
layerId = m007;
shapes = (
{
closed = 1;
nodes = (
(61,250,l),
(23,0,l),
(242,0,ls),
(444,0,o),
(626,144,o),
(655,352,cs),
(679,521,o),
(599,700,o),
(353,700,cs),
(119,700,l)
);
},
{
closed = 1;
nodes = (
(151,668,l),
(336,670,l),
(515,670,o),
(652,571,o),
(619,336,cs),
(587,109,o),
(373,25,o),
(248,28,cs),
(64,33,l),
(91,250,l)
);
}
);
width = 705;
},
{
anchors = (
{
name = bottom;
pos = (363,0);
},
{
name = center;
pos = (363,350);
},
{
name = top;
pos = (313,700);
}
);
background = {
anchors = (
{
name = bottom;
pos = (363,0);
},
{
name = center;
pos = (363,350);
},
{
name = top;
pos = (313,700);
}
);
hints = (
{
name = _corner.serif;
scale = (-0.8,1.5);
type = Corner;
},
{
name = _corner.serif;
scale = (0.8,1.5);
type = Corner;
},
{
name = _corner.mitre;
type = Corner;
},
{
name = _corner.mitre;
type = Corner;
}
);
shapes = (
{
closed = 1;
nodes = (
(85,250,l),
(75,0,l),
(301,0,ls),
(493,0,o),
(665,144,o),
(665,352,cs),
(665,521,o),
(550,700,o),
(314,700,cs),
(80,700,l)
);
},
{
closed = 1;
nodes = (
(169,635,l),
(301,640,l),
(460,640,o),
(571,531,o),
(571,336,cs),
(571,149,o),
(439,66,o),
(303,60,c),
(174,66,l),
(165,250,l)
);
}
);
};
layerId = m008;
shapes = (
{
closed = 1;
nodes = (
(85,250,l),
(75,0,l),
(301,0,ls),
(533,0,o),
(685,144,o),
(685,352,cs),
(685,521,o),
(580,700,o),
(324,700,cs),
(80,700,l)
);
},
{
closed = 1;
nodes = (
(189,610,l),
(291,613,ls),
(450,618,o),
(571,531,o),
(571,336,cs),
(571,149,o),
(419,85,o),
(303,88,cs),
(194,91,l),
(185,250,l)
);
}
);
width = 735;
},
{
anchors = (
{
name = bottom;
pos = (328,0);
},
{
name = center;
pos = (377,350);
},
{
name = top;
pos = (376,700);
}
);
background = {
anchors = (
{
name = bottom;
pos = (363,0);
},
{
name = center;
pos = (363,350);
},
{
name = top;
pos = (313,700);
}
);
hints = (
{
name = _corner.serif;
scale = (-0.8,1.5);
type = Corner;
},
{
name = _corner.serif;
scale = (0.8,1.5);
type = Corner;
},
{
name = _corner.mitre;
type = Corner;
},
{
name = _corner.mitre;
type = Corner;
}
);
shapes = (
{
closed = 1;
nodes = (
(85,250,l),
(75,0,l),
(301,0,ls),
(493,0,o),
(665,144,o),
(665,352,cs),
(665,521,o),
(550,700,o),
(314,700,cs),
(80,700,l)
);
},
{
closed = 1;
nodes = (
(169,635,l),
(301,640,l),
(460,640,o),
(571,531,o),
(571,336,cs),
(571,149,o),
(439,66,o),
(303,60,c),
(174,66,l),
(165,250,l)
);
}
);
};
layerId = m009;
shapes = (
{
closed = 1;
nodes = (
(85,250,l),
(40,0,l),
(266,0,ls),
(498,0,o),
(670,144,o),
(699,352,cs),
(723,521,o),
(643,700,o),
(387,700,cs),
(143,700,l)
);
},
{
closed = 1;
nodes = (
(240,610,l),
(342,613,ls),
(502,618,o),
(610,531,o),
(583,336,cs),
(557,149,o),
(396,85,o),
(280,88,cs),
(172,91,l),
(185,250,l)
);
}
);
width = 735;
}
);
unicode = 68;
}
{
glyphname = Y;
kernLeft = Y;
kernRight = Y;
layers = (
{
anchors = (
{
name = bottom;
pos = (323,0);
},
{
name = top;
pos = (323,650);
},
{
name = topleft;
pos = (45,700);
}
);
background = {
anchors = (
{
name = bottom;
pos = (323,0);
},
{
name = top;
pos = (323,700);
},
{
name = topleft;
pos = (45,700);
}
);
shapes = (
{
closed = 1;
nodes = (
(326,258,l),
(611,700,l),
(521,700,l),
(323,359,l),
(133,700,l),
(35,700,l),
(278,264,l)
);
},
{
closed = 1;
nodes = (
(268,0,l),
(358,0,l),
(353,330,l),
(268,330,l)
);
}
);
};
layerId = m002;
shapes = (
{
closed = 1;
nodes = (
(326,258,l),
(611,700,l),
(521,700,l),
(323,359,l),
(133,700,l),
(35,700,l),
(278,264,l)
);
},
{
closed = 1;
nodes = (
(268,0,l),
(358,0,l),
(353,330,l),
(268,330,l)
);
}
);
width = 621;
},
{
anchors = (
{
name = bottom;
pos = (283,0);
},
{
name = top;
pos = (371,650);
},
{
name = topleft;
pos = (103,700);
}
);
background = {
anchors = (
{
name = bottom;
pos = (298,0);
},
{
name = top;
pos = (298,700);
},
{
name = topleft;
pos = (20,700);
}
);
shapes = (
{
closed = 1;
nodes = (
(301,258,l),
(586,700,l),
(496,700,l),
(298,359,l),
(108,700,l),
(10,700,l),
(253,264,l)
);
},
{
closed = 1;
nodes = (
(243,0,l),
(333,0,l),
(328,330,l),
(243,330,l)
);
}
);
};
layerId = m003;
shapes = (
{
closed = 1;
nodes = (
(322,258,l),
(669,700,l),
(579,700,l),
(323,359,l),
(191,700,l),
(93,700,l),
(275,264,l)
);
},
{
closed = 1;
nodes = (
(228,0,l),
(318,0,l),
(359,330,l),
(274,330,l)
);
}
);
width = 636;
},
{
anchors = (
{
name = bottom;
pos = (288,0);
},
{
name = top;
pos = (298,650);
},
{
name = topleft;
pos = (10,700);
}
);
background = {
anchors = (
{
name = bottom;
pos = (288,0);
},
{
name = top;
pos = (288,700);
},
{
name = topleft;
pos = (10,700);
}
);
shapes = (
{
closed = 1;
nodes = (
(291,258,l),
(576,700,l),
(486,700,l),
(288,359,l),
(98,700,l),
(0,700,l),
(243,264,l)
);
},
{
closed = 1;
nodes = (
(233,0,l),
(323,0,l),
(318,330,l),
(233,330,l)
);
}
);
};
layerId = m006;
shapes = (
{
closed = 1;
nodes = (
(301,258,l),
(576,700,l),
(526,700,l),
(296,299,l),
(58,700,l),
(10,700,l),
(283,253,l)
);
},
{
closed = 1;
nodes = (
(272,0,l),
(312,0,l),
(307,290,l),
(272,290,l)
);
}
);
width = 586;
},
{
anchors = (
{
name = bottom;
pos = (288,0);
},
{
name = top;
pos = (328,650);
},
{
name = topleft;
pos = (10,700);
}
);
background = {
anchors = (
{
name = bottom;
pos = (288,0);
},
{
name = top;
pos = (288,700);
},
{
name = topleft;
pos = (10,700);
}
);
shapes = (
{
closed = 1;
nodes = (
(291,258,l),
(576,700,l),
(486,700,l),
(288,359,l),
(98,700,l),
(0,700,l),
(243,264,l)
);
},
{
closed = 1;
nodes = (
(233,0,l),
(323,0,l),
(318,330,l),
(233,330,l)
);
}
);
};
layerId = m007;
shapes = (
{
closed = 1;
nodes = (
(288,258,l),
(625,700,l),
(575,700,l),
(289,299,l),
(107,700,l),
(59,700,l),
(269,253,l)
);
},
{
closed = 1;
nodes = (
(223,0,l),
(263,0,l),
(299,290,l),
(264,290,l)
);
}
);
width = 586;
},
{
anchors = (
{
name = bottom;
pos = (333,0);
},
{
name = top;
pos = (333,650);
},
{
name = topleft;
pos = (55,700);
}
);
background = {
shapes = (
{
closed = 1;
nodes = (
(336,258,l),
(621,700,l),
(531,700,l),
(333,359,l),
(143,700,l),
(45,700,l),
(288,264,l)
);
},
{
closed = 1;
nodes = (
(278,0,l),
(368,0,l),
(363,330,l),
(278,330,l)
);
}
);
};
layerId = m008;
shapes = (
{
closed = 1;
nodes = (
(356,252,l),
(641,700,l),
(516,700,l),
(333,380,l),
(158,700,l),
(35,700,l),
(278,258,l)
);
},
{
closed = 1;
nodes = (
(268,0,l),
(378,0,l),
(373,330,l),
(268,330,l)
);
}
);
width = 651;
},
{
anchors = (
{
name = bottom;
pos = (298,0);
},
{
name = top;
pos = (389,650);
},
{
name = topleft;
pos = (118,700);
}
);
background = {
shapes = (
{
closed = 1;
nodes = (
(336,258,l),
(621,700,l),
(531,700,l),
(333,359,l),
(143,700,l),
(45,700,l),
(288,264,l)
);
},
{
closed = 1;
nodes = (
(278,0,l),
(368,0,l),
(363,330,l),
(278,330,l)
);
}
);
};
layerId = m009;
shapes = (
{
closed = 1;
nodes = (
(356,252,l),
(704,700,l),
(579,700,l),
(351,380,l),
(221,700,l),
(98,700,l),
(279,258,l)
);
},
{
closed = 1;
nodes = (
(233,0,l),
(343,0,l),
(384,330,l),
(279,330,l)
);
}
);
width = 651;
}
);
unicode = 89;
}
{
glyphname = e;
kernLeft = o;
kernRight = e;
layers = (
{
anchors = (
{
name = bottom;
pos = (257,0);
},
{
name = ogonek;
pos = (454,70);
},
{
name = top;
pos = (277,500);
}
);
background = {
anchors = (
{
name = bottom;
pos = (257,0);
},
{
name = ogonek;
pos = (454,70);
},
{
name = top;
pos = (257,500);
}
);
shapes = (
{
closed = 1;
nodes = (
(258,15,o),
(143,101,o),
(143,256,cs),
(143,413,o),
(209,449,o),
(262,449,cs),
(308,449,o),
(358,407,o),
(360,328,c),
(442,328,l),
(438,456,o),
(354,520,o),
(282,520,cs),
(181,520,o),
(60,414,o),
(60,231,cs),
(60,118,o),
(140,-10,o),
(259,-10,cs),
(309,-10,o),
(366,10,o),
(454,70,c),
(434,110,l)
);
},
{
closed = 1;
nodes = (
(109,288,l),
(442,288,l),
(442,328,l),
(389,343,l),
(109,333,l)
);
}
);
};
layerId = m002;
shapes = (
{
closed = 1;
nodes = (
(383,83,o),
(338,70,o),
(298,70,cs),
(201,70,o),
(143,146,o),
(143,256,cs),
(143,413,o),
(209,449,o),
(262,449,cs),
(308,449,o),
(358,407,o),
(360,328,c),
(442,328,l),
(438,456,o),
(354,520,o),
(282,520,cs),
(181,520,o),
(60,414,o),
(60,231,cs),
(60,118,o),
(140,-10,o),
(259,-10,cs),
(309,-10,o),
(366,10,o),
(454,70,c),
(434,110,l)
);
},
{
closed = 1;
nodes = (
(109,288,l),
(442,288,l),
(442,328,l),
(389,343,l),
(109,333,l)
);
}
);
width = 514;
},
{
anchors = (
{
name = bottom;
pos = (222,0);
},
{
name = ogonek;
pos = (429,70);
},
{
name = top;
pos = (312,500);
}
);
background = {
shapes = (
{
closed = 1;
nodes = (
(215,15,o),
(112,101,o),
(134,256,cs),
(156,413,o),
(227,449,o),
(260,449,cs),
(326,449,o),
(370,407,o),
(361,328,c),
(443,328,l),
(457,456,o),
(382,515,o),
(290,515,cs),
(209,515,o),
(73,414,o),
(50,251,cs),
(31,118,o),
(93,-10,o),
(212,-10,cs),
(262,-10,o),
(322,10,o),
(419,70,c),
(404,110,l)
);
},
{
closed = 1;
nodes = (
(104,288,l),
(437,288,l),
(443,328,l),
(392,343,l),
(111,333,l)
);
}
);
};
layerId = m003;
shapes = (
{
closed = 1;
nodes = (
(360,83,o),
(312,70,o),
(273,70,cs),
(176,70,o),
(128,146,o),
(144,256,cs),
(166,413,o),
(227,449,o),
(280,449,cs),
(346,449,o),
(380,407,o),
(371,328,c),
(453,328,l),
(467,456,o),
(397,515,o),
(305,515,cs),
(204,515,o),
(83,414,o),
(60,251,cs),
(41,118,o),
(103,-10,o),
(222,-10,cs),
(272,-10,o),
(332,10,o),
(429,70,c),
(414,110,l)
);
},
{
closed = 1;
nodes = (
(114,288,l),
(447,288,l),
(453,328,l),
(402,343,l),
(121,333,l)
);
}
);
width = 514;
},
{
anchors = (
{
name = bottom;
pos = (260,0);
},
{
name = ogonek;
pos = (447,60);
},
{
name = top;
pos = (280,500);
}
);
background = {
shapes = (
{
closed = 1;
nodes = (
(261,15,o),
(146,101,o),
(146,256,cs),
(146,413,o),
(212,449,o),
(265,449,cs),
(311,449,o),
(361,407,o),
(363,328,c),
(445,328,l),
(441,456,o),
(357,520,o),
(285,520,cs),
(184,520,o),
(63,414,o),
(63,231,cs),
(63,118,o),
(143,-10,o),
(262,-10,cs),
(312,-10,o),
(369,10,o),
(457,70,c),
(437,110,l)
);
},
{
closed = 1;
nodes = (
(112,288,l),
(445,288,l),
(445,328,l),
(392,343,l),
(112,333,l)
);
}
);
};
layerId = m006;
shapes = (
{
closed = 1;
nodes = (
(375,42,o),
(322,25,o),
(278,25,cs),
(157,25,o),
(96,150,o),
(96,256,cs),
(96,413,o),
(192,490,o),
(265,490,cs),
(331,490,o),
(405,447,o),
(412,308,c),
(445,308,l),
(441,456,o),
(357,520,o),
(275,520,cs),
(164,520,o),
(60,414,o),
(60,231,cs),
(60,118,o),
(143,-10,o),
(262,-10,cs),
(312,-10,o),
(369,10,o),
(447,60,c),
(435,82,l)
);
},
{
closed = 1;
nodes = (
(92,288,l),
(445,288,l),
(445,308,l),
(432,318,l),
(92,313,l)
);
}
);
width = 507;
},
{
anchors = (
{
name = bottom;
pos = (188,0);
},
{
name = ogonek;
pos = (395,70);
},
{
name = top;
pos = (278,500);
}
);
background = {
shapes = (
{
closed = 1;
nodes = (
(238,15,o),
(123,101,o),
(123,256,cs),
(123,413,o),
(189,449,o),
(242,449,cs),
(288,449,o),
(338,407,o),
(340,328,c),
(422,328,l),
(418,456,o),
(334,520,o),
(262,520,cs),
(161,520,o),
(40,414,o),
(40,231,cs),
(40,118,o),
(120,-10,o),
(239,-10,cs),
(289,-10,o),
(346,10,o),
(434,70,c),
(414,110,l)
);
},
{
closed = 1;
nodes = (
(89,288,l),
(422,288,l),
(422,328,l),
(369,343,l),
(89,333,l)
);
}
);
};
layerId = m007;
shapes = (
{
closed = 1;
nodes = (
(308,42,o),
(253,25,o),
(209,25,cs),
(88,25,o),
(45,150,o),
(60,256,cs),
(82,413,o),
(189,490,o),
(262,490,cs),
(328,490,o),
(396,447,o),
(383,308,c),
(416,308,l),
(433,456,o),
(358,520,o),
(276,520,cs),
(165,520,o),
(46,414,o),
(20,231,cs),
(4,118,o),
(69,-10,o),
(188,-10,cs),
(238,-10,o),
(298,10,o),
(383,60,c),
(374,82,l)
);
},
{
closed = 1;
nodes = (
(60,288,l),
(413,288,l),
(416,308,l),
(405,318,l),
(64,313,l)
);
}
);
width = 464;
},
{
anchors = (
{
name = bottom;
pos = (257,0);
},
{
name = ogonek;
pos = (449,75);
},
{
name = top;
pos = (267,500);
}
);
background = {
anchors = (
{
name = bottom;
pos = (257,0);
},
{
name = ogonek;
pos = (454,70);
},
{
name = top;
pos = (257,500);
}
);
shapes = (
{
closed = 1;
nodes = (
(161,116,o),
(161,261,cs),
(161,437,o),
(288,428,o),
(409,390,c),
(421,494,l),
(387,505,o),
(352,510,o),
(319,510,cs),
(185,510,o),
(58,389,o),
(58,233,cs),
(58,100,o),
(138,-10,o),
(257,-10,cs),
(307,-10,o),
(354,10,o),
(442,70,c),
(417,125,l),
(236,35,o)
);
}
);
};
layerId = m008;
shapes = (
{
closed = 1;
nodes = (
(370,96,o),
(326,84,o),
(290,84,cs),
(191,84,o),
(158,179,o),
(158,256,cs),
(158,382,o),
(196,428,o),
(254,428,cs),
(303,428,o),
(333,393,o),
(335,328,c),
(437,328,l),
(433,446,o),
(352,510,o),
(270,510,cs),
(169,510,o),
(50,414,o),
(50,231,cs),
(50,118,o),
(120,-10,o),
(259,-10,cs),
(309,-10,o),
(366,10,o),
(449,75,c),
(424,125,l)
);
},
{
closed = 1;
nodes = (
(109,258,l),
(437,258,l),
(437,328,l),
(384,333,l),
(109,323,l)
);
}
);
width = 514;
},
{
anchors = (
{
name = bottom;
pos = (217,0);
},
{
name = ogonek;
pos = (419,75);
},
{
name = top;
pos = (297,500);
}
);
background = {
anchors = (
{
name = bottom;
pos = (252,0);
},
{
name = ogonek;
pos = (449,70);
},
{
name = top;
pos = (252,500);
}
);
shapes = (
{
closed = 1;
nodes = (
(156,116,o),
(156,261,cs),
(156,437,o),
(283,428,o),
(404,390,c),
(416,494,l),
(382,505,o),
(347,510,o),
(314,510,cs),
(180,510,o),
(53,389,o),
(53,233,cs),
(53,100,o),
(133,-10,o),
(252,-10,cs),
(302,-10,o),
(349,10,o),
(437,70,c),
(412,125,l),
(231,35,o)
);
}
);
};
layerId = m009;
shapes = (
{
closed = 1;
nodes = (
(343,96,o),
(297,84,o),
(262,84,cs),
(162,84,o),
(143,179,o),
(154,256,cs),
(172,382,o),
(216,428,o),
(274,428,cs),
(323,428,o),
(363,403,o),
(356,318,c),
(448,318,l),
(461,446,o),
(384,510,o),
(302,510,cs),
(201,510,o),
(78,414,o),
(55,251,cs),
(36,118,o),
(78,-10,o),
(217,-10,cs),
(267,-10,o),
(327,10,o),
(419,75,c),
(401,125,l)
);
},
{
closed = 1;
nodes = (
(105,258,l),
(438,258,l),
(448,318,l),
(396,323,l),
(114,313,l)
);
}
);
width = 499;
}
);
unicode = 101;
}
{
glyphname = f;
kernLeft = f;
kernRight = f;
layers = (
{
anchors = (
{
name = bottom;
pos = (168,0);
},
{
name = top;
pos = (168,750);
}
);
background = {
anchors = (
{
name = bottom;
pos = (168,0);
},
{
name = top;
pos = (168,750);
}
);
shapes = (
{
closed = 1;
nodes = (
(179,659,o),
(208,687,o),
(329,668,c),
(330,758,l),
(212,782,o),
(102,665,o),
(106,546,cs),
(115,240,l),
(115,0,l),
(205,0,l),
(190,340,l),
(195,468,l),
(186,573,ls)
);
},
{
closed = 1;
nodes = (
(28,450,l),
(303,450,l),
(308,518,l),
(25,500,l)
);
}
);
};
layerId = m002;
shapes = (
{
closed = 1;
nodes = (
(179,659,o),
(208,687,o),
(329,668,c),
(330,758,l),
(212,782,o),
(102,665,o),
(106,546,cs),
(115,240,l),
(115,0,l),
(205,0,l),
(190,340,l),
(195,468,l),
(186,573,ls)
);
},
{
closed = 1;
nodes = (
(28,450,l),
(303,450,l),
(308,518,l),
(25,500,l)
);
}
);
width = 335;
},
{
anchors = (
{
name = bottom;
pos = (138,0);
},
{
name = top;
pos = (243,750);
}
);
background = {
anchors = (
{
name = bottom;
pos = (163,0);
},
{
name = top;
pos = (163,750);
}
);
shapes = (
{
closed = 1;
nodes = (
(174,659,o),
(203,687,o),
(324,668,c),
(325,758,l),
(207,782,o),
(97,665,o),
(101,546,cs),
(110,240,l),
(110,0,l),
(200,0,l),
(185,340,l),
(190,468,l),
(181,573,ls)
);
},
{
closed = 1;
nodes = (
(23,450,l),
(298,450,l),
(303,518,l),
(20,500,l)
);
}
);
};
layerId = m003;
shapes = (
{
closed = 1;
nodes = (
(241,659,o),
(274,687,o),
(393,668,c),
(406,758,l),
(292,782,o),
(165,665,o),
(153,546,cs),
(119,240,l),
(85,0,l),
(175,0,l),
(208,340,l),
(231,468,l),
(236,573,ls)
);
},
{
closed = 1;
nodes = (
(61,450,l),
(336,450,l),
(351,518,l),
(65,500,l)
);
}
);
width = 345;
},
{
anchors = (
{
name = bottom;
pos = (138,0);
},
{
name = top;
pos = (138,750);
}
);
background = {
shapes = (
{
closed = 1;
nodes = (
(149,659,o),
(178,687,o),
(299,668,c),
(300,758,l),
(182,782,o),
(72,665,o),
(76,546,cs),
(85,240,l),
(85,0,l),
(175,0,l),
(160,340,l),
(165,468,l),
(156,573,ls)
);
},
{
closed = 1;
nodes = (
(-2,450,l),
(273,450,l),
(278,518,l),
(-5,500,l)
);
}
);
};
layerId = m006;
shapes = (
{
closed = 1;
nodes = (
(109,659,o),
(116,737,o),
(247,718,c),
(248,758,l),
(110,762,o),
(78,685,o),
(80,586,cs),
(88,250,l),
(85,0,l),
(125,0,l),
(116,340,l),
(117,488,l),
(112,593,ls)
);
},
{
closed = 1;
nodes = (
(-2,470,l),
(237,470,l),
(238,508,l),
(-5,495,l)
);
}
);
width = 253;
},
{
anchors = (
{
name = bottom;
pos = (114,0);
},
{
name = top;
pos = (219,750);
}
);
background = {
shapes = (
{
closed = 1;
nodes = (
(174,659,o),
(203,687,o),
(324,668,c),
(325,758,l),
(207,782,o),
(97,665,o),
(101,546,cs),
(110,240,l),
(110,0,l),
(200,0,l),
(185,340,l),
(190,468,l),
(181,573,ls)
);
},
{
closed = 1;
nodes = (
(23,450,l),
(298,450,l),
(303,518,l),
(20,500,l)
);
}
);
};
layerId = m007;
shapes = (
{
closed = 1;
nodes = (
(177,659,o),
(195,737,o),
(324,718,c),
(330,758,l),
(193,762,o),
(150,685,o),
(138,586,cs),
(99,250,l),
(61,0,l),
(101,0,l),
(140,340,l),
(161,488,l),
(171,593,ls)
);
},
{
closed = 1;
nodes = (
(40,470,l),
(279,470,l),
(285,508,l),
(40,495,l)
);
}
);
width = 273;
},
{
anchors = (
{
name = bottom;
pos = (168,0);
},
{
name = top;
pos = (168,750);
}
);
background = {
anchors = (
{
name = bottom;
pos = (168,0);
},
{
name = top;
pos = (168,750);
}
);
shapes = (
{
closed = 1;
nodes = (
(179,659,o),
(208,687,o),
(329,668,c),
(330,758,l),
(212,782,o),
(102,665,o),
(106,546,cs),
(115,240,l),
(115,0,l),
(205,0,l),
(190,340,l),
(195,468,l),
(186,573,ls)
);
},
{
closed = 1;
nodes = (
(28,450,l),
(303,450,l),
(308,518,l),
(25,500,l)
);
}
);
};
layerId = m008;
shapes = (
{
closed = 1;
nodes = (
(203,659,o),
(208,667,o),
(329,648,c),
(330,758,l),
(212,782,o),
(102,665,o),
(106,546,cs),
(115,240,l),
(115,0,l),
(225,0,l),
(210,340,l),
(210,468,l),
(206,573,ls)
);
},
{
closed = 1;
nodes = (
(28,430,l),
(303,425,l),
(308,518,l),
(25,500,l)
);
}
);
width = 335;
},
{
anchors = (
{
name = bottom;
pos = (138,0);
},
{
name = top;
pos = (243,750);
}
);
background = {
anchors = (
{
name = bottom;
pos = (173,0);
},
{
name = top;
pos = (173,750);
}
);
shapes = (
{
closed = 1;
nodes = (
(184,659,o),
(213,687,o),
(334,668,c),
(335,758,l),
(217,782,o),
(107,665,o),
(111,546,cs),
(120,240,l),
(120,0,l),
(210,0,l),
(195,340,l),
(200,468,l),
(191,573,ls)
);
},
{
closed = 1;
nodes = (
(33,450,l),
(308,450,l),
(313,518,l),
(30,500,l)
);
}
);
};
layerId = m009;
shapes = (
{
closed = 1;
nodes = (
(265,659,o),
(272,667,o),
(390,648,c),
(406,758,l),
(292,782,o),
(165,665,o),
(153,546,cs),
(119,240,l),
(85,0,l),
(195,0,l),
(228,340,l),
(246,468,l),
(256,573,ls)
);
},
{
closed = 1;
nodes = (
(58,430,l),
(333,425,l),
(351,518,l),
(65,500,l)
);
}
);
width = 350;
}
);
unicode = 102;
}
{
glyphname = j;
kernLeft = i;
kernRight = g;
layers = (
{
background = {
shapes = (
{
closed = 1;
nodes = (
(128,-159,o),
(99,-187,o),
(-22,-168,c),
(-23,-258,l),
(95,-282,o),
(207,-165,o),
(201,-46,cs),
(185,250,l),
(185,510,l),
(95,490,l),
(110,250,l),
(112,32,l),
(121,-73,ls)
);
},
{
closed = 1;
nodes = (
(171,623,o),
(195,648,o),
(195,679,cs),
(195,709,o),
(171,733,o),
(141,733,cs),
(110,733,o),
(85,709,o),
(85,679,cs),
(85,648,o),
(110,623,o),
(141,623,cs)
);
}
);
};
layerId = m002;
shapes = (
{
closed = 1;
nodes = (
(95,-282,o),
(207,-165,o),
(201,-46,cs),
(185,250,l),
(185,510,l),
(95,490,l),
(110,250,l),
(112,32,l),
(121,-73,ls),
(128,-159,o),
(99,-187,o),
(-22,-168,c),
(-23,-258,l)
);
},
{
closed = 1;
nodes = (
(171,623,o),
(195,648,o),
(195,679,cs),
(195,709,o),
(171,733,o),
(141,733,cs),
(110,733,o),
(85,709,o),
(85,679,cs),
(85,648,o),
(110,623,o),
(141,623,cs)
);
}
);
width = 276;
},
{
background = {
shapes = (
{
closed = 1;
nodes = (
(108,-159,o),
(79,-187,o),
(-42,-168,c),
(-43,-258,l),
(75,-282,o),
(187,-165,o),
(181,-46,cs),
(165,250,l),
(165,510,l),
(75,490,l),
(90,250,l),
(92,32,l),
(101,-73,ls)
);
},
{
closed = 1;
nodes = (
(151,623,o),
(175,648,o),
(175,679,cs),
(175,709,o),
(151,733,o),
(121,733,cs),
(90,733,o),
(65,709,o),
(65,679,cs),
(65,648,o),
(90,623,o),
(121,623,cs)
);
}
);
};
layerId = m003;
shapes = (
{
closed = 1;
nodes = (
(10,-282,o),
(139,-165,o),
(149,-46,cs),
(175,250,l),
(212,510,l),
(119,490,l),
(100,250,l),
(71,32,l),
(66,-73,ls),
(61,-159,o),
(28,-187,o),
(-91,-168,c),
(-104,-258,l)
);
},
{
closed = 1;
nodes = (
(221,623,o),
(245,648,o),
(245,679,cs),
(245,709,o),
(221,733,o),
(191,733,cs),
(160,733,o),
(135,709,o),
(135,679,cs),
(135,648,o),
(160,623,o),
(191,623,c)
);
}
);
width = 251;
},
{
background = {
shapes = (
{
closed = 1;
nodes = (
(128,250,l),
(128,0,l),
(167,0,l),
(161,250,l),
(158,505,l),
(123,500,l)
);
},
{
closed = 1;
nodes = (
(152,653,o),
(163,664,o),
(163,678,cs),
(163,692,o),
(152,703,o),
(138,703,cs),
(124,703,o),
(113,692,o),
(113,678,cs),
(113,664,o),
(124,653,o),
(138,653,cs)
);
}
);
};
layerId = m006;
shapes = (
{
closed = 1;
nodes = (
(63,-232,o),
(141,-165,o),
(138,-46,cs),
(131,250,l),
(128,505,l),
(93,500,l),
(98,250,l),
(100,32,l),
(104,-43,ls),
(109,-159,o),
(67,-187,o),
(-54,-168,c),
(-55,-208,l)
);
},
{
closed = 1;
nodes = (
(122,653,o),
(133,664,o),
(133,678,cs),
(133,692,o),
(122,703,o),
(108,703,cs),
(94,703,o),
(83,692,o),
(83,678,cs),
(83,664,o),
(94,653,o),
(108,653,cs)
);
}
);
width = 213;
},
{
background = {
shapes = (
{
closed = 1;
nodes = (
(110,250,l),
(110,0,l),
(149,0,l),
(143,250,l),
(140,505,l),
(105,500,l)
);
},
{
closed = 1;
nodes = (
(134,653,o),
(145,664,o),
(145,678,cs),
(145,692,o),
(134,703,o),
(120,703,cs),
(106,703,o),
(95,692,o),
(95,678,cs),
(95,664,o),
(106,653,o),
(120,653,cs)
);
}
);
};
layerId = m007;
shapes = (
{
closed = 1;
nodes = (
(-37,-232,o),
(51,-165,o),
(64,-46,cs),
(99,250,l),
(132,505,l),
(96,500,l),
(66,250,l),
(37,32,l),
(31,-43,ls),
(19,-159,o),
(-26,-187,o),
(-145,-168,c),
(-151,-208,l)
);
},
{
closed = 1;
nodes = (
(150,653,o),
(161,664,o),
(161,678,cs),
(161,692,o),
(150,703,o),
(136,703,cs),
(122,703,o),
(111,692,o),
(111,678,cs),
(111,664,o),
(122,653,o),
(136,653,cs)
);
}
);
width = 170;
},
{
background = {
shapes = (
{
closed = 1;
nodes = (
(138,-159,o),
(109,-187,o),
(-12,-168,c),
(-13,-258,l),
(105,-282,o),
(217,-165,o),
(211,-46,cs),
(195,250,l),
(195,510,l),
(105,490,l),
(120,250,l),
(122,32,l),
(131,-73,ls)
);
},
{
closed = 1;
nodes = (
(181,623,o),
(205,648,o),
(205,679,cs),
(205,709,o),
(181,733,o),
(151,733,cs),
(120,733,o),
(95,709,o),
(95,679,cs),
(95,648,o),
(120,623,o),
(151,623,cs)
);
}
);
};
layerId = m008;
shapes = (
{
closed = 1;
nodes = (
(115,-282,o),
(225,-165,o),
(221,-46,cs),
(210,250,l),
(205,510,l),
(95,490,l),
(105,250,l),
(112,32,l),
(121,-73,ls),
(127,-139,o),
(90,-162,o),
(-2,-148,c),
(-3,-258,l)
);
},
{
closed = 1;
nodes = (
(187,603,o),
(215,633,o),
(215,669,cs),
(215,705,o),
(187,733,o),
(151,733,cs),
(115,733,o),
(85,705,o),
(85,669,cs),
(85,633,o),
(115,603,o),
(151,603,cs)
);
}
);
width = 296;
},
{
background = {
shapes = (
{
closed = 1;
nodes = (
(138,-159,o),
(109,-187,o),
(-12,-168,c),
(-13,-258,l),
(105,-282,o),
(217,-165,o),
(211,-46,cs),
(195,250,l),
(195,510,l),
(105,490,l),
(120,250,l),
(122,32,l),
(131,-73,ls)
);
},
{
closed = 1;
nodes = (
(181,623,o),
(205,648,o),
(205,679,cs),
(205,709,o),
(181,733,o),
(151,733,cs),
(120,733,o),
(95,709,o),
(95,679,cs),
(95,648,o),
(120,623,o),
(151,623,cs)
);
}
);
};
layerId = m009;
shapes = (
{
closed = 1;
nodes = (
(40,-282,o),
(167,-165,o),
(179,-46,cs),
(210,250,l),
(242,510,l),
(129,490,l),
(105,250,l),
(81,32,l),
(76,-73,ls),
(72,-139,o),
(32,-162,o),
(-58,-148,c),
(-74,-258,l)
);
},
{
closed = 1;
nodes = (
(246,603,o),
(274,633,o),
(274,669,cs),
(274,705,o),
(246,733,o),
(210,733,cs),
(174,733,o),
(144,705,o),
(144,669,cs),
(144,633,o),
(174,603,o),
(210,603,cs)
);
}
);
width = 296;
}
);
unicode = 106;
}
{
glyphname = r;
kernLeft = i;
kernRight = r;
layers = (
{
anchors = (
{
name = bottom;
pos = (137,0);
},
{
name = top;
pos = (218,490);
}
);
background = {
anchors = (
{
name = bottom;
pos = (188,0);
},
{
name = top;
pos = (218,490);
}
);
shapes = (
{
closed = 1;
nodes = (
(163,329,l),
(229,399,o),
(253,420,o),
(355,417,c),
(344,515,l),
(256,511,o),
(215,447,o),
(155,384,c)
);
},
{
closed = 1;
nodes = (
(165,510,l),
(75,490,l),
(95,300,l),
(95,0,l),
(175,0,l),
(175,250,l)
);
}
);
};
layerId = m002;
shapes = (
{
closed = 1;
nodes = (
(175,0,l),
(175,250,l),
(165,510,l),
(75,490,l),
(95,300,l),
(95,0,l)
);
},
{
closed = 1;
nodes = (
(229,399,o),
(253,420,o),
(355,417,c),
(344,515,l),
(256,511,o),
(215,447,o),
(155,384,c),
(163,329,l)
);
}
);
width = 365;
},
{
anchors = (
{
name = bottom;
pos = (87,0);
},
{
name = top;
pos = (251,490);
}
);
background = {
anchors = (
{
name = bottom;
pos = (168,0);
},
{
name = top;
pos = (198,490);
}
);
shapes = (
{
closed = 1;
nodes = (
(143,329,l),
(209,399,o),
(233,420,o),
(335,417,c),
(324,515,l),
(236,511,o),
(195,447,o),
(135,384,c)
);
},
{
closed = 1;
nodes = (
(145,510,l),
(55,490,l),
(75,300,l),
(75,0,l),
(155,0,l),
(155,250,l)
);
}
);
};
layerId = m003;
shapes = (
{
closed = 1;
nodes = (
(125,0,l),
(160,250,l),
(198,510,l),
(105,490,l),
(92,300,l),
(50,0,l)
);
},
{
closed = 1;
nodes = (
(235,399,o),
(262,420,o),
(353,417,c),
(366,515,l),
(278,511,o),
(228,447,o),
(159,384,c),
(159,329,l)
);
}
);
width = 355;
},
{
anchors = (
{
name = bottom;
pos = (94,0);
},
{
name = top;
pos = (151,490);
}
);
background = {
anchors = (
{
name = bottom;
pos = (121,0);
},
{
name = top;
pos = (151,490);
}
);
shapes = (
{
closed = 1;
nodes = (
(96,329,l),
(162,399,o),
(186,420,o),
(288,417,c),
(277,515,l),
(189,511,o),
(148,447,o),
(88,384,c)
);
},
{
closed = 1;
nodes = (
(98,510,l),
(8,490,l),
(28,300,l),
(28,0,l),
(108,0,l),
(108,250,l)
);
}
);
};
layerId = m006;
shapes = (
{
closed = 1;
nodes = (
(108,0,l),
(108,250,l),
(93,510,l),
(55,504,l),
(75,300,l),
(75,0,l)
);
},
{
closed = 1;
nodes = (
(162,414,o),
(181,465,o),
(283,472,c),
(277,510,l),
(199,506,o),
(148,442,o),
(88,379,c),
(96,354,l)
);
}
);
width = 308;
},
{
anchors = (
{
name = bottom;
pos = (44,0);
},
{
name = top;
pos = (171,490);
}
);
background = {
anchors = (
{
name = bottom;
pos = (121,0);
},
{
name = top;
pos = (151,490);
}
);
shapes = (
{
closed = 1;
nodes = (
(96,329,l),
(162,399,o),
(186,420,o),
(288,417,c),
(277,515,l),
(189,511,o),
(148,447,o),
(88,384,c)
);
},
{
closed = 1;
nodes = (
(98,510,l),
(8,490,l),
(28,300,l),
(28,0,l),
(108,0,l),
(108,250,l)
);
}
);
};
layerId = m007;
shapes = (
{
closed = 1;
nodes = (
(59,0,l),
(94,250,l),
(115,510,l),
(77,504,l),
(68,300,l),
(26,0,l)
);
},
{
closed = 1;
nodes = (
(171,414,o),
(197,465,o),
(300,472,c),
(299,510,l),
(221,506,o),
(161,442,o),
(92,379,c),
(97,354,l)
);
}
);
width = 308;
},
{
anchors = (
{
name = bottom;
pos = (132,0);
},
{
name = top;
pos = (218,490);
}
);
background = {
shapes = (
{
closed = 1;
nodes = (
(175,0,l),
(175,250,l),
(165,510,l),
(75,490,l),
(95,300,l),
(95,0,l)
);
},
{
closed = 1;
nodes = (
(229,399,o),
(253,420,o),
(355,417,c),
(344,515,l),
(256,511,o),
(215,447,o),
(155,384,c),
(163,329,l)
);
}
);
};
layerId = m008;
shapes = (
{
closed = 1;
nodes = (
(190,0,l),
(190,250,l),
(175,510,l),
(69,490,l),
(89,300,l),
(89,0,l)
);
},
{
closed = 1;
nodes = (
(229,369,o),
(253,390,o),
(355,387,c),
(344,515,l),
(256,511,o),
(215,427,o),
(155,364,c),
(163,299,l)
);
}
);
width = 365;
},
{
anchors = (
{
name = bottom;
pos = (102,0);
},
{
name = top;
pos = (252,490);
}
);
background = {
shapes = (
{
closed = 1;
nodes = (
(175,0,l),
(175,250,l),
(165,510,l),
(75,490,l),
(95,300,l),
(95,0,l)
);
},
{
closed = 1;
nodes = (
(229,399,o),
(253,420,o),
(355,417,c),
(344,515,l),
(256,511,o),
(215,447,o),
(155,384,c),
(163,329,l)
);
}
);
};
layerId = m009;
shapes = (
{
closed = 1;
nodes = (
(155,0,l),
(190,250,l),
(212,510,l),
(103,490,l),
(96,300,l),
(54,0,l)
);
},
{
closed = 1;
nodes = (
(246,369,o),
(273,390,o),
(374,387,c),
(381,515,l),
(293,511,o),
(240,427,o),
(171,364,c),
(170,299,l)
);
}
);
width = 365;
}
);
unicode = 114;
}
{
glyphname = s;
layers = (
{
anchors = (
{
name = bottom;
pos = (229,0);
},
{
name = top;
pos = (229,500);
}
);
background = {
hints = (
{
name = _corner.mitre;
options = 2;
type = Corner;
},
{
name = _corner.mitre;
options = 2;
type = Corner;
},
{
name = _corner.mitre;
options = 2;
type = Corner;
},
{
name = _corner.mitre;
options = 2;
type = Corner;
},
{
name = _corner.mitre;
options = 2;
type = Corner;
},
{
name = _corner.mitre;
options = 2;
type = Corner;
}
);
shapes = (
{
closed = 1;
nodes = (
(186,-56,o),
(403,-2,o),
(403,160,cs),
(403,242,o),
(323,268,o),
(253,290,cs),
(197,308,o),
(147,324,o),
(147,365,cs),
(147,466,o),
(250,469,o),
(325,390,c),
(382,467,l),
(260,564,o),
(72,491,o),
(72,336,cs),
(72,265,o),
(143,242,o),
(209,220,cs),
(267,201,o),
(322,183,o),
(322,135,cs),
(322,23,o),
(186,38,o),
(104,114,c),
(60,32,l)
);
}
);
};
layerId = m002;
shapes = (
{
closed = 1;
nodes = (
(102,3,o),
(153,-11,o),
(204,-11,cs),
(306,-11,o),
(403,45,o),
(403,140,cs),
(403,242,o),
(323,268,o),
(253,290,cs),
(197,308,o),
(147,324,o),
(147,375,cs),
(147,423,o),
(181,446,o),
(224,446,cs),
(263,446,o),
(309,427,o),
(345,390,c),
(382,477,l),
(347,501,o),
(307,512,o),
(261,512,cs),
(175,512,o),
(72,451,o),
(72,356,cs),
(72,265,o),
(143,242,o),
(209,220,cs),
(267,201,o),
(322,183,o),
(322,125,cs),
(322,75,o),
(289,53,o),
(245,53,cs),
(201,53,o),
(145,76,o),
(104,114,c),
(60,32,l)
);
}
);
width = 448;
},
{
anchors = (
{
name = bottom;
pos = (170,0);
},
{
name = top;
pos = (240,500);
}
);
background = {
hints = (
{
name = _corner.mitre;
options = 2;
type = Corner;
},
{
name = _corner.mitre;
options = 2;
type = Corner;
},
{
name = _corner.mitre;
options = 2;
type = Corner;
},
{
name = _corner.mitre;
options = 2;
type = Corner;
},
{
name = _corner.mitre;
options = 2;
type = Corner;
},
{
name = _corner.mitre;
options = 2;
type = Corner;
}
);
shapes = (
{
closed = 1;
nodes = (
(141,-65,o),
(356,9,o),
(377,160,cs),
(389,242,o),
(313,268,o),
(245,290,cs),
(192,308,o),
(144,324,o),
(150,365,cs),
(163,454,o),
(259,480,o),
(332,390,c),
(399,467,l),
(292,567,o),
(93,490,o),
(71,336,cs),
(61,265,o),
(129,242,o),
(192,220,cs),
(247,201,o),
(300,183,o),
(293,135,cs),
(277,24,o),
(144,37,o),
(72,114,c),
(16,32,l)
);
}
);
};
layerId = m003;
shapes = (
{
closed = 1;
nodes = (
(62,-3,o),
(111,-16,o),
(158,-16,cs),
(257,-16,o),
(348,44,o),
(357,133,cs),
(367,234,o),
(295,269,o),
(232,299,cs),
(183,323,o),
(137,344,o),
(145,394,cs),
(149,422,o),
(176,443,o),
(216,443,cs),
(247,443,o),
(286,430,o),
(329,398,c),
(373,476,l),
(338,499,o),
(298,509,o),
(257,509,cs),
(168,509,o),
(82,456,o),
(72,364,cs),
(62,289,o),
(124,259,o),
(183,229,cs),
(237,202,o),
(290,176,o),
(283,116,cs),
(279,73,o),
(242,47,o),
(196,47,cs),
(156,47,o),
(109,67,o),
(72,112,c),
(19,28,l)
);
}
);
width = 409;
},
{
anchors = (
{
name = bottom;
pos = (219,0);
},
{
name = top;
pos = (219,500);
}
);
background = {
hints = (
{
name = _corner.mitre;
options = 2;
type = Corner;
},
{
name = _corner.mitre;
options = 2;
type = Corner;
},
{
name = _corner.mitre;
options = 2;
type = Corner;
},
{
name = _corner.mitre;
options = 2;
type = Corner;
},
{
name = _corner.mitre;
options = 2;
type = Corner;
},
{
name = _corner.mitre;
options = 2;
type = Corner;
}
);
shapes = (
{
closed = 1;
nodes = (
(188,-65,o),
(393,9,o),
(393,160,cs),
(393,242,o),
(313,268,o),
(243,290,cs),
(187,308,o),
(137,324,o),
(137,365,cs),
(137,454,o),
(230,480,o),
(315,390,c),
(372,467,l),
(250,567,o),
(62,490,o),
(62,336,cs),
(62,265,o),
(133,242,o),
(199,220,cs),
(257,201,o),
(312,183,o),
(312,135,cs),
(312,24,o),
(177,37,o),
(94,114,c),
(50,32,l)
);
}
);
};
layerId = m006;
shapes = (
{
closed = 1;
nodes = (
(91,-1,o),
(139,-15,o),
(185,-15,cs),
(281,-15,o),
(369,48,o),
(369,130,cs),
(369,223,o),
(294,255,o),
(224,278,cs),
(162,298,o),
(94,310,o),
(94,375,cs),
(94,436,o),
(148,477,o),
(223,477,cs),
(257,477,o),
(295,469,o),
(334,450,c),
(342,486,l),
(310,503,o),
(273,512,o),
(237,512,cs),
(147,512,o),
(62,460,o),
(62,361,cs),
(62,283,o),
(141,266,o),
(209,244,cs),
(273,222,o),
(337,193,o),
(337,125,cs),
(337,61,o),
(274,18,o),
(200,18,cs),
(157,18,o),
(110,32,o),
(69,64,c),
(50,32,l)
);
}
);
width = 414;
},
{
anchors = (
{
name = bottom;
pos = (170,0);
},
{
name = top;
pos = (240,500);
}
);
background = {
hints = (
{
name = _corner.mitre;
options = 2;
type = Corner;
},
{
name = _corner.mitre;
options = 2;
type = Corner;
},
{
name = _corner.mitre;
options = 2;
type = Corner;
},
{
name = _corner.mitre;
options = 2;
type = Corner;
},
{
name = _corner.mitre;
options = 2;
type = Corner;
},
{
name = _corner.mitre;
options = 2;
type = Corner;
}
);
shapes = (
{
closed = 1;
nodes = (
(188,-65,o),
(393,9,o),
(393,160,cs),
(393,242,o),
(313,268,o),
(243,290,cs),
(187,308,o),
(137,324,o),
(137,365,cs),
(137,454,o),
(230,480,o),
(315,390,c),
(372,467,l),
(250,567,o),
(62,490,o),
(62,336,cs),
(62,265,o),
(133,242,o),
(199,220,cs),
(257,201,o),
(312,183,o),
(312,135,cs),
(312,24,o),
(177,37,o),
(94,114,c),
(50,32,l)
);
}
);
};
layerId = m007;
shapes = (
{
closed = 1;
nodes = (
(40,1,o),
(83,-13,o),
(127,-13,cs),
(226,-13,o),
(327,56,o),
(339,140,cs),
(353,233,o),
(281,255,o),
(214,278,cs),
(155,298,o),
(88,310,o),
(98,375,cs),
(107,439,o),
(168,480,o),
(242,480,cs),
(272,480,o),
(303,473,o),
(334,459,c),
(352,490,l),
(326,504,o),
(294,511,o),
(261,511,cs),
(173,511,o),
(78,462,o),
(64,361,cs),
(53,283,o),
(129,266,o),
(194,244,cs),
(255,222,o),
(316,203,o),
(307,135,cs),
(298,69,o),
(224,21,o),
(146,21,cs),
(106,21,o),
(64,34,o),
(29,64,c),
(5,32,l)
);
}
);
width = 414;
},
{
anchors = (
{
name = bottom;
pos = (189,0);
},
{
name = top;
pos = (229,500);
}
);
background = {
hints = (
{
name = _corner.mitre;
options = 2;
type = Corner;
},
{
name = _corner.mitre;
options = 2;
type = Corner;
},
{
name = _corner.mitre;
options = 2;
type = Corner;
},
{
name = _corner.mitre;
options = 2;
type = Corner;
},
{
name = _corner.mitre;
options = 2;
type = Corner;
},
{
name = _corner.mitre;
options = 2;
type = Corner;
}
);
shapes = (
{
closed = 1;
nodes = (
(198,-65,o),
(403,9,o),
(403,160,cs),
(403,242,o),
(323,268,o),
(253,290,cs),
(197,308,o),
(147,324,o),
(147,365,cs),
(147,454,o),
(240,480,o),
(325,390,c),
(382,467,l),
(260,567,o),
(72,490,o),
(72,336,cs),
(72,265,o),
(143,242,o),
(209,220,cs),
(267,201,o),
(322,183,o),
(322,135,cs),
(322,24,o),
(187,37,o),
(104,114,c),
(60,32,l)
);
}
);
};
layerId = m008;
shapes = (
{
closed = 1;
nodes = (
(90,1,o),
(137,-13,o),
(184,-13,cs),
(296,-13,o),
(403,64,o),
(403,150,cs),
(403,252,o),
(313,288,o),
(243,310,cs),
(187,328,o),
(162,344,o),
(162,375,cs),
(162,403,o),
(185,426,o),
(225,426,cs),
(254,426,o),
(291,414,o),
(335,385,c),
(382,467,l),
(350,498,o),
(307,512,o),
(262,512,cs),
(165,512,o),
(62,445,o),
(62,346,cs),
(62,265,o),
(133,237,o),
(199,215,cs),
(255,197,o),
(302,184,o),
(302,137,cs),
(302,97,o),
(271,78,o),
(228,78,cs),
(190,78,o),
(142,94,o),
(99,124,c),
(50,32,l)
);
}
);
width = 448;
},
{
anchors = (
{
name = bottom;
pos = (174,0);
},
{
name = top;
pos = (284,500);
}
);
background = {
hints = (
{
name = _corner.mitre;
options = 2;
type = Corner;
},
{
name = _corner.mitre;
options = 2;
type = Corner;
},
{
name = _corner.mitre;
options = 2;
type = Corner;
},
{
name = _corner.mitre;
options = 2;
type = Corner;
},
{
name = _corner.mitre;
options = 2;
type = Corner;
},
{
name = _corner.mitre;
options = 2;
type = Corner;
}
);
shapes = (
{
closed = 1;
nodes = (
(217,-67,o),
(397,1,o),
(393,143,cs),
(390,236,o),
(305,277,o),
(239,309,cs),
(196,329,o),
(162,336,o),
(165,374,cs),
(167,414,o),
(213,451,o),
(350,388,c),
(371,476,l),
(239,549,o),
(70,498,o),
(76,364,cs),
(80,261,o),
(154,243,o),
(218,211,cs),
(265,188,o),
(305,168,o),
(303,121,cs),
(301,55,o),
(189,56,o),
(110,122,c),
(70,28,l)
);
}
);
};
layerId = m009;
shapes = (
{
closed = 1;
nodes = (
(59,-2,o),
(107,-17,o),
(156,-17,cs),
(259,-17,o),
(361,48,o),
(376,130,cs),
(398,252,o),
(318,288,o),
(251,310,cs),
(198,328,o),
(170,344,o),
(175,375,cs),
(178,403,o),
(205,426,o),
(245,426,cs),
(273,426,o),
(309,414,o),
(349,385,c),
(407,467,l),
(379,499,o),
(339,513,o),
(295,513,cs),
(201,513,o),
(95,448,o),
(82,356,cs),
(69,265,o),
(131,242,o),
(194,220,cs),
(248,202,o),
(293,174,o),
(286,127,cs),
(281,90,o),
(251,73,o),
(212,73,cs),
(172,73,o),
(122,91,o),
(81,124,c),
(19,32,l)
);
}
);
width = 438;
}
);
unicode = 115;
}
{
glyphname = z;
kernLeft = z;
kernRight = z;
layers = (
{
anchors = (
{
name = bottom;
pos = (255,0);
},
{
name = center;
pos = (255,250);
},
{
name = top;
pos = (265,490);
}
);
background = {
anchors = (
{
name = bottom;
pos = (255,0);
},
{
name = center;
pos = (255,250);
},
{
name = top;
pos = (265,490);
}
);
shapes = (
{
closed = 1;
nodes = (
(444,500,l),
(81,500,l),
(81,425,l),
(354,440,l),
(223,267,l),
(50,50,l),
(66,0,l),
(451,0,l),
(451,75,l),
(154,60,l),
(284,234,l),
(460,454,l)
);
}
);
};
layerId = m002;
shapes = (
{
closed = 1;
nodes = (
(444,500,l),
(81,500,l),
(81,425,l),
(354,440,l),
(223,267,l),
(50,50,l),
(66,0,l),
(451,0,l),
(451,75,l),
(154,60,l),
(284,234,l),
(460,454,l)
);
}
);
width = 500;
},
{
anchors = (
{
name = bottom;
pos = (210,0);
},
{
name = center;
pos = (245,250);
},
{
name = top;
pos = (289,490);
}
);
background = {
anchors = (
{
name = bottom;
pos = (235,0);
},
{
name = center;
pos = (235,250);
},
{
name = top;
pos = (245,490);
}
);
shapes = (
{
closed = 1;
nodes = (
(424,500,l),
(61,500,l),
(61,425,l),
(334,440,l),
(203,267,l),
(30,50,l),
(46,0,l),
(431,0,l),
(431,75,l),
(134,60,l),
(264,234,l),
(440,454,l)
);
}
);
};
layerId = m003;
shapes = (
{
closed = 1;
nodes = (
(469,500,l),
(106,500,l),
(96,425,l),
(371,440,l),
(215,267,l),
(12,50,l),
(21,0,l),
(406,0,l),
(416,75,l),
(117,60,l),
(272,234,l),
(479,454,l)
);
}
);
width = 490;
},
{
anchors = (
{
name = bottom;
pos = (235,0);
},
{
name = center;
pos = (235,250);
},
{
name = top;
pos = (245,490);
}
);
background = {
anchors = (
{
name = bottom;
pos = (235,0);
},
{
name = center;
pos = (235,250);
},
{
name = top;
pos = (245,490);
}
);
shapes = (
{
closed = 1;
nodes = (
(424,500,l),
(61,500,l),
(61,425,l),
(334,440,l),
(203,267,l),
(30,50,l),
(46,0,l),
(431,0,l),
(431,75,l),
(134,60,l),
(264,234,l),
(440,454,l)
);
}
);
};
layerId = m006;
shapes = (
{
closed = 1;
nodes = (
(424,500,l),
(61,500,l),
(61,465,l),
(379,470,l),
(219,262,l),
(34,25,l),
(46,0,l),
(431,0,l),
(431,35,l),
(79,32,l),
(243,241,l),
(430,476,l)
);
}
);
width = 470;
},
{
anchors = (
{
name = bottom;
pos = (235,0);
},
{
name = center;
pos = (235,250);
},
{
name = top;
pos = (245,490);
}
);
background = {
anchors = (
{
name = bottom;
pos = (235,0);
},
{
name = center;
pos = (235,250);
},
{
name = top;
pos = (245,490);
}
);
shapes = (
{
closed = 1;
nodes = (
(424,500,l),
(61,500,l),
(61,425,l),
(334,440,l),
(203,267,l),
(30,50,l),
(46,0,l),
(431,0,l),
(431,75,l),
(134,60,l),
(264,234,l),
(440,454,l)
);
}
);
};
layerId = m007;
shapes = (
{
closed = 1;
nodes = (
(424,500,l),
(61,500,l),
(61,465,l),
(379,470,l),
(219,262,l),
(34,25,l),
(46,0,l),
(431,0,l),
(431,35,l),
(79,32,l),
(243,241,l),
(430,476,l)
);
}
);
width = 470;
},
{
anchors = (
{
name = bottom;
pos = (255,0);
},
{
name = center;
pos = (255,250);
},
{
name = top;
pos = (265,490);
}
);
background = {
anchors = (
{
name = bottom;
pos = (255,0);
},
{
name = center;
pos = (255,250);
},
{
name = top;
pos = (265,490);
}
);
shapes = (
{
closed = 1;
nodes = (
(444,500,l),
(81,500,l),
(81,425,l),
(354,440,l),
(223,267,l),
(50,50,l),
(66,0,l),
(451,0,l),
(451,75,l),
(154,60,l),
(284,234,l),
(460,454,l)
);
}
);
};
layerId = m008;
shapes = (
{
closed = 1;
nodes = (
(444,500,l),
(81,500,l),
(81,405,l),
(314,420,l),
(213,267,l),
(50,50,l),
(66,0,l),
(451,0,l),
(451,95,l),
(194,80,l),
(294,234,l),
(460,454,l)
);
}
);
width = 500;
},
{
anchors = (
{
name = bottom;
pos = (220,0);
},
{
name = center;
pos = (255,250);
},
{
name = top;
pos = (299,490);
}
);
background = {
anchors = (
{
name = bottom;
pos = (255,0);
},
{
name = center;
pos = (255,250);
},
{
name = top;
pos = (265,490);
}
);
shapes = (
{
closed = 1;
nodes = (
(444,500,l),
(81,500,l),
(81,425,l),
(354,440,l),
(223,267,l),
(50,50,l),
(66,0,l),
(451,0,l),
(451,75,l),
(154,60,l),
(284,234,l),
(460,454,l)
);
}
);
};
layerId = m009;
shapes = (
{
closed = 1;
nodes = (
(479,500,l),
(116,500,l),
(103,405,l),
(338,420,l),
(215,267,l),
(22,50,l),
(31,0,l),
(416,0,l),
(429,95,l),
(170,80,l),
(292,234,l),
(489,454,l)
);
}
);
width = 500;
}
);
unicode = 122;
}
{
glyphname = asciitilde;
layers = (
{
background = {
shapes = (
{
closed = 1;
nodes = (
(310,195,o),
(192,420,o),
(74,220,c),
(120,191,l),
(200,305,o),
(319,80,o),
(436,280,c),
(390,309,l)
);
}
);
};
layerId = m002;
shapes = (
{
closed = 1;
nodes = (
(350,178,o),
(208,440,o),
(45,216,c),
(82,185,l),
(200,322,o),
(342,60,o),
(505,284,c),
(468,315,l)
);
}
);
width = 550;
},
{
background = {
shapes = (
{
closed = 1;
nodes = (
(310,195,o),
(192,420,o),
(74,220,c),
(120,191,l),
(200,305,o),
(319,80,o),
(436,280,c),
(390,309,l)
);
}
);
};
layerId = m003;
shapes = (
{
closed = 1;
nodes = (
(340,178,o),
(234,440,o),
(40,216,c),
(73,185,l),
(210,322,o),
(316,60,o),
(510,284,c),
(477,315,l)
);
}
);
width = 550;
},
{
background = {
shapes = (
{
closed = 1;
nodes = (
(310,195,o),
(192,420,o),
(74,220,c),
(120,191,l),
(200,305,o),
(319,80,o),
(436,280,c),
(390,309,l)
);
}
);
};
layerId = m006;
shapes = (
{
closed = 1;
nodes = (
(367,123,o),
(181,440,o),
(50,216,c),
(71,205,l),
(183,377,o),
(369,60,o),
(500,284,c),
(479,295,l)
);
}
);
width = 550;
},
{
background = {
shapes = (
{
closed = 1;
nodes = (
(310,195,o),
(192,420,o),
(74,220,c),
(120,191,l),
(200,305,o),
(319,80,o),
(436,280,c),
(390,309,l)
);
}
);
};
layerId = m007;
shapes = (
{
closed = 1;
nodes = (
(349,128,o),
(203,433,o),
(45,216,c),
(65,200,l),
(201,372,o),
(347,67,o),
(505,284,c),
(485,300,l)
);
}
);
width = 550;
},
{
background = {
shapes = (
{
closed = 1;
nodes = (
(310,195,o),
(192,420,o),
(74,220,c),
(120,191,l),
(200,305,o),
(319,80,o),
(436,280,c),
(390,309,l)
);
}
);
};
layerId = m008;
shapes = (
{
closed = 1;
nodes = (
(330,178,o),
(201,480,o),
(50,216,c),
(101,185,l),
(210,322,o),
(339,20,o),
(500,284,c),
(449,315,l)
);
}
);
width = 550;
},
{
background = {
shapes = (
{
closed = 1;
nodes = (
(310,195,o),
(192,420,o),
(74,220,c),
(120,191,l),
(200,305,o),
(319,80,o),
(436,280,c),
(390,309,l)
);
}
);
};
layerId = m009;
shapes = (
{
closed = 1;
nodes = (
(320,178,o),
(233,480,o),
(45,216,c),
(88,181,l),
(220,322,o),
(307,20,o),
(505,284,c),
(462,318,l)
);
}
);
width = 550;
}
);
unicode = 126;
}
{
glyphname = yen;
layers = (
{
anchors = (
{
name = bottom;
pos = (323,0);
},
{
name = top;
pos = (323,650);
},
{
name = topleft;
pos = (45,700);
}
);
layerId = m002;
shapes = (
{
closed = 1;
nodes = (
(531,340,l),
(377,336,l),
(611,700,l),
(521,700,l),
(323,359,l),
(133,700,l),
(35,700,l),
(237,337,l),
(91,340,l),
(91,275,l),
(268,275,l),
(268,215,l),
(91,215,l),
(91,150,l),
(268,154,l),
(268,0,l),
(358,0,l),
(356,154,l),
(531,150,l),
(531,215,l),
(355,215,l),
(354,275,l),
(531,275,l)
);
}
);
width = 621;
},
{
anchors = (
{
name = bottom;
pos = (263,0);
},
{
name = top;
pos = (351,650);
},
{
name = topleft;
pos = (83,700);
}
);
layerId = m003;
shapes = (
{
closed = 1;
nodes = (
(516,340,l),
(364,337,l),
(649,700,l),
(559,700,l),
(303,359,l),
(171,700,l),
(73,700,l),
(225,337,l),
(76,340,l),
(76,275,l),
(246,275,l),
(238,215,l),
(56,215,l),
(56,150,l),
(229,154,l),
(208,0,l),
(298,0,l),
(317,154,l),
(496,150,l),
(496,215,l),
(325,215,l),
(332,275,l),
(516,275,l)
);
}
);
width = 596;
},
{
anchors = (
{
name = bottom;
pos = (288,0);
},
{
name = top;
pos = (288,650);
},
{
name = topleft;
pos = (10,700);
}
);
layerId = m006;
shapes = (
{
closed = 1;
nodes = (
(510,290,l),
(318,286,l),
(576,700,l),
(526,700,l),
(296,299,l),
(58,700,l),
(10,700,l),
(263,286,l),
(70,290,l),
(70,255,l),
(272,255,l),
(272,185,l),
(70,185,l),
(70,150,l),
(272,155,l),
(272,0,l),
(312,0,l),
(309,155,l),
(510,150,l),
(510,185,l),
(309,185,l),
(308,255,l),
(510,255,l)
);
}
);
width = 586;
},
{
anchors = (
{
name = bottom;
pos = (288,0);
},
{
name = top;
pos = (328,650);
},
{
name = topleft;
pos = (10,700);
}
);
layerId = m007;
shapes = (
{
closed = 1;
nodes = (
(506,290,l),
(309,286,l),
(625,700,l),
(575,700,l),
(289,299,l),
(107,700,l),
(59,700,l),
(254,286,l),
(66,290,l),
(66,255,l),
(259,255,l),
(249,185,l),
(46,185,l),
(46,150,l),
(245,155,l),
(223,0,l),
(263,0,l),
(282,155,l),
(486,150,l),
(486,185,l),
(286,185,l),
(295,255,l),
(506,255,l)
);
}
);
width = 586;
},
{
anchors = (
{
name = bottom;
pos = (333,0);
},
{
name = top;
pos = (333,650);
},
{
name = topleft;
pos = (55,700);
}
);
layerId = m008;
shapes = (
{
closed = 1;
nodes = (
(546,340,l),
(410,337,l),
(641,700,l),
(516,700,l),
(333,380,l),
(158,700,l),
(35,700,l),
(235,337,l),
(106,340,l),
(106,255,l),
(268,255,l),
(268,205,l),
(106,205,l),
(106,120,l),
(268,124,l),
(268,0,l),
(378,0,l),
(376,124,l),
(546,120,l),
(546,205,l),
(375,205,l),
(374,255,l),
(546,255,l)
);
}
);
width = 651;
},
{
anchors = (
{
name = bottom;
pos = (298,0);
},
{
name = top;
pos = (389,650);
},
{
name = topleft;
pos = (118,700);
}
);
layerId = m009;
shapes = (
{
closed = 1;
nodes = (
(559,340,l),
(422,337,l),
(704,700,l),
(579,700,l),
(351,380,l),
(221,700,l),
(98,700,l),
(247,337,l),
(119,340,l),
(107,255,l),
(269,255,l),
(262,205,l),
(100,205,l),
(88,120,l),
(250,124,l),
(233,0,l),
(343,0,l),
(358,124,l),
(528,120,l),
(540,205,l),
(368,205,l),
(375,255,l),
(547,255,l)
);
}
);
width = 651;
}
);
metricLeft = "=Y";
metricRight = "=Y";
unicode = 165;
}
{
glyphname = brokenbar;
layers = (
{
layerId = m006;
shapes = (
{
closed = 1;
nodes = (
(120,470,l),
(120,795,l),
(80,795,l),
(80,470,l)
);
},
{
closed = 1;
nodes = (
(80,280,l),
(80,-45,l),
(120,-45,l),
(120,280,l)
);
}
);
width = 200;
},
{
layerId = m007;
shapes = (
{
closed = 1;
nodes = (
(137,470,l),
(183,795,l),
(143,795,l),
(97,470,l)
);
},
{
closed = 1;
nodes = (
(70,280,l),
(24,-45,l),
(64,-45,l),
(110,280,l)
);
}
);
width = 171;
},
{
layerId = m002;
shapes = (
{
closed = 1;
nodes = (
(150,470,l),
(150,795,l),
(80,795,l),
(80,470,l)
);
},
{
closed = 1;
nodes = (
(80,280,l),
(80,-45,l),
(150,-45,l),
(150,280,l)
);
}
);
width = 230;
},
{
layerId = m003;
shapes = (
{
closed = 1;
nodes = (
(167,470,l),
(213,795,l),
(143,795,l),
(97,470,l)
);
},
{
closed = 1;
nodes = (
(70,280,l),
(24,-45,l),
(94,-45,l),
(140,280,l)
);
}
);
width = 201;
},
{
layerId = m008;
shapes = (
{
closed = 1;
nodes = (
(210,470,l),
(210,795,l),
(80,795,l),
(80,470,l)
);
},
{
closed = 1;
nodes = (
(80,280,l),
(80,-45,l),
(210,-45,l),
(210,280,l)
);
}
);
width = 290;
},
{
layerId = m009;
shapes = (
{
closed = 1;
nodes = (
(227,470,l),
(273,795,l),
(143,795,l),
(97,470,l)
);
},
{
closed = 1;
nodes = (
(70,280,l),
(24,-45,l),
(154,-45,l),
(200,280,l)
);
}
);
width = 261;
}
);
unicode = 166;
}
{
glyphname = eth;
kernLeft = o;
kernRight = o;
layers = (
{
anchors = (
{
name = bottom;
pos = (267,0);
},
{
name = top;
pos = (267,750);
}
);
layerId = m002;
shapes = (
{
closed = 1;
nodes = (
(394,-20,o),
(492,127,o),
(494,255,cs),
(498,470,o),
(328,640,o),
(129,760,c),
(103,730,l),
(269,603,o),
(407,441,o),
(404,235,cs),
(402,123,o),
(376,55,o),
(269,55,cs),
(176,55,o),
(131,148,o),
(133,256,cs),
(135,380,o),
(186,450,o),
(267,450,cs),
(305,450,o),
(350,436,o),
(399,415,c),
(391,475,l),
(257,593,o),
(53,430,o),
(50,248,cs),
(47,91,o),
(118,-20,o),
(244,-20,cs)
);
},
{
closed = 1;
nodes = (
(329,760,l),
(104,591,l),
(130,555,l),
(355,724,l)
);
}
);
width = 534;
},
{
anchors = (
{
name = bottom;
pos = (242,0);
},
{
name = top;
pos = (347,750);
}
);
layerId = m003;
shapes = (
{
closed = 1;
nodes = (
(366,-20,o),
(485,127,o),
(505,255,cs),
(539,470,o),
(393,640,o),
(211,760,c),
(180,730,l),
(329,603,o),
(444,441,o),
(412,235,cs),
(394,123,o),
(359,55,o),
(252,55,cs),
(159,55,o),
(127,148,o),
(144,256,cs),
(163,380,o),
(224,450,o),
(305,450,cs),
(343,450,o),
(386,436,o),
(432,415,c),
(433,475,l),
(315,593,o),
(88,430,o),
(60,248,cs),
(35,91,o),
(90,-20,o),
(216,-20,cs)
);
},
{
closed = 1;
nodes = (
(411,760,l),
(162,591,l),
(183,555,l),
(432,724,l)
);
}
);
width = 554;
},
{
anchors = (
{
name = bottom;
pos = (267,0);
},
{
name = top;
pos = (267,750);
}
);
layerId = m006;
shapes = (
{
closed = 1;
nodes = (
(394,-20,o),
(481,97,o),
(484,255,cs),
(487,420,o),
(328,640,o),
(129,760,c),
(113,740,l),
(279,613,o),
(450,441,o),
(447,235,cs),
(445,93,o),
(366,10,o),
(269,10,cs),
(146,10,o),
(86,118,o),
(88,256,cs),
(90,392,o),
(162,480,o),
(275,480,cs),
(315,480,o),
(360,469,o),
(409,445,c),
(401,475,l),
(227,593,o),
(53,430,o),
(50,248,cs),
(47,91,o),
(128,-20,o),
(254,-20,cs)
);
},
{
closed = 1;
nodes = (
(329,760,l),
(104,591,l),
(123,567,l),
(348,736,l)
);
}
);
width = 524;
},
{
anchors = (
{
name = bottom;
pos = (267,0);
},
{
name = top;
pos = (267,750);
}
);
layerId = m007;
shapes = (
{
closed = 1;
nodes = (
(342,-20,o),
(445,97,o),
(471,255,cs),
(497,420,o),
(369,640,o),
(187,760,c),
(168,740,l),
(316,613,o),
(463,441,o),
(431,235,cs),
(409,93,o),
(318,10,o),
(221,10,cs),
(98,10,o),
(53,118,o),
(75,256,cs),
(96,392,o),
(180,480,o),
(293,480,cs),
(333,480,o),
(377,469,o),
(422,445,c),
(419,475,l),
(261,593,o),
(64,430,o),
(36,248,cs),
(11,91,o),
(76,-20,o),
(202,-20,cs)
);
},
{
closed = 1;
nodes = (
(387,760,l),
(138,591,l),
(153,567,l),
(402,736,l)
);
}
);
width = 524;
},
{
anchors = (
{
name = bottom;
pos = (267,0);
},
{
name = top;
pos = (267,750);
}
);
background = {
shapes = (
{
closed = 1;
nodes = (
(394,-20,o),
(492,127,o),
(494,255,cs),
(498,470,o),
(328,640,o),
(129,760,c),
(103,730,l),
(269,603,o),
(407,441,o),
(404,235,cs),
(402,123,o),
(376,55,o),
(269,55,cs),
(176,55,o),
(131,148,o),
(133,256,cs),
(135,380,o),
(186,450,o),
(267,450,cs),
(305,450,o),
(350,436,o),
(399,415,c),
(391,475,l),
(257,593,o),
(53,430,o),
(50,248,cs),
(47,91,o),
(118,-20,o),
(244,-20,cs)
);
},
{
closed = 1;
nodes = (
(329,760,l),
(104,591,l),
(130,555,l),
(355,724,l)
);
}
);
};
layerId = m008;
shapes = (
{
closed = 1;
nodes = (
(394,-20,o),
(492,127,o),
(494,255,cs),
(498,470,o),
(328,640,o),
(129,760,c),
(93,715,l),
(259,588,o),
(387,441,o),
(384,235,cs),
(382,123,o),
(346,75,o),
(269,75,cs),
(206,75,o),
(151,148,o),
(153,256,cs),
(155,380,o),
(206,430,o),
(267,430,cs),
(305,430,o),
(350,416,o),
(399,395,c),
(391,475,l),
(257,593,o),
(53,430,o),
(50,248,cs),
(47,91,o),
(118,-20,o),
(244,-20,cs)
);
},
{
closed = 1;
nodes = (
(309,760,l),
(84,591,l),
(120,545,l),
(345,714,l)
);
}
);
width = 534;
},
{
anchors = (
{
name = bottom;
pos = (232,0);
},
{
name = top;
pos = (337,750);
}
);
background = {
shapes = (
{
closed = 1;
nodes = (
(394,-20,o),
(492,127,o),
(494,255,cs),
(498,470,o),
(328,640,o),
(129,760,c),
(103,730,l),
(269,603,o),
(407,441,o),
(404,235,cs),
(402,123,o),
(376,55,o),
(269,55,cs),
(176,55,o),
(131,148,o),
(133,256,cs),
(135,380,o),
(186,450,o),
(267,450,cs),
(305,450,o),
(350,436,o),
(399,415,c),
(391,475,l),
(257,593,o),
(53,430,o),
(50,248,cs),
(47,91,o),
(118,-20,o),
(244,-20,cs)
);
},
{
closed = 1;
nodes = (
(329,760,l),
(104,591,l),
(130,555,l),
(355,724,l)
);
}
);
};
layerId = m009;
shapes = (
{
closed = 1;
nodes = (
(356,-20,o),
(475,127,o),
(495,255,cs),
(529,470,o),
(383,640,o),
(201,760,c),
(158,715,l),
(307,588,o),
(414,441,o),
(382,235,cs),
(364,123,o),
(321,75,o),
(244,75,cs),
(181,75,o),
(137,148,o),
(154,256,cs),
(173,380,o),
(231,430,o),
(292,430,cs),
(330,430,o),
(373,416,o),
(419,395,c),
(423,475,l),
(305,593,o),
(78,430,o),
(50,248,cs),
(25,91,o),
(80,-20,o),
(206,-20,cs)
);
},
{
closed = 1;
nodes = (
(381,760,l),
(132,591,l),
(161,545,l),
(410,714,l)
);
}
);
width = 534;
}
);
unicode = 240;
}
{
glyphname = oslash;
kernLeft = o;
kernRight = o;
layers = (
{
layerId = m002;
shapes = (
{
ref = o;
},
{
closed = 1;
nodes = (
(25,-18,l),
(72,-52,l),
(530,518,l),
(483,552,l)
);
}
);
width = 554;
},
{
layerId = m003;
shapes = (
{
ref = o;
},
{
closed = 1;
nodes = (
(35,-18,l),
(82,-52,l),
(540,518,l),
(493,552,l)
);
}
);
width = 574;
},
{
layerId = m006;
shapes = (
{
ref = o;
},
{
closed = 1;
nodes = (
(36,-25,l),
(61,-45,l),
(519,525,l),
(494,545,l)
);
}
);
width = 554;
},
{
layerId = m007;
shapes = (
{
ref = o;
},
{
closed = 1;
nodes = (
(26,-25,l),
(51,-45,l),
(509,525,l),
(484,545,l)
);
}
);
width = 554;
},
{
layerId = m008;
shapes = (
{
ref = o;
},
{
closed = 1;
nodes = (
(20,-13,l),
(77,-57,l),
(535,513,l),
(478,557,l)
);
}
);
width = 554;
},
{
layerId = m009;
shapes = (
{
ref = o;
},
{
closed = 1;
nodes = (
(20,-13,l),
(77,-57,l),
(535,513,l),
(478,557,l)
);
}
);
width = 554;
}
);
unicode = 248;
}
{
glyphname = dcroat;
kernLeft = o;
layers = (
{
layerId = m002;
shapes = (
{
ref = d;
},
{
closed = 1;
nodes = (
(386,590,l),
(456,590,l),
(536,585,l),
(536,655,l),
(456,650,l),
(386,650,l),
(236,655,l),
(236,585,l)
);
}
);
width = 535;
},
{
layerId = m003;
shapes = (
{
ref = d;
},
{
closed = 1;
nodes = (
(446,590,l),
(516,590,l),
(596,585,l),
(596,655,l),
(516,650,l),
(446,650,l),
(296,655,l),
(296,585,l)
);
}
);
width = 555;
},
{
layerId = m006;
shapes = (
{
ref = d;
},
{
closed = 1;
nodes = (
(406,628,l),
(416,628,l),
(536,625,l),
(536,655,l),
(416,652,l),
(406,652,l),
(236,655,l),
(236,625,l)
);
}
);
width = 535;
},
{
layerId = m007;
shapes = (
{
ref = d;
},
{
closed = 1;
nodes = (
(446,628,l),
(456,628,l),
(576,625,l),
(576,655,l),
(456,652,l),
(446,652,l),
(276,655,l),
(276,625,l)
);
}
);
width = 535;
},
{
layerId = m008;
shapes = (
{
ref = d;
},
{
closed = 1;
nodes = (
(401,600,l),
(471,600,l),
(571,595,l),
(571,675,l),
(471,670,l),
(401,670,l),
(241,675,l),
(241,595,l)
);
}
);
width = 561;
},
{
layerId = m009;
shapes = (
{
ref = d;
},
{
closed = 1;
nodes = (
(450,600,l),
(520,600,l),
(619,595,l),
(631,675,l),
(530,670,l),
(460,670,l),
(301,675,l),
(289,595,l)
);
}
);
width = 561;
}
);
unicode = 273;
}
{
glyphname = hbar;
layers = (
{
layerId = m002;
shapes = (
{
ref = h;
},
{
closed = 1;
nodes = (
(320,655,l),
(170,650,l),
(100,650,l),
(20,655,l),
(20,585,l),
(100,590,l),
(170,590,l),
(320,585,l)
);
}
);
width = 530;
},
{
layerId = m003;
shapes = (
{
ref = h;
},
{
closed = 1;
nodes = (
(350,655,l),
(200,650,l),
(130,650,l),
(50,655,l),
(50,585,l),
(130,590,l),
(200,590,l),
(350,585,l)
);
}
);
width = 530;
},
{
layerId = m006;
shapes = (
{
ref = h;
},
{
closed = 1;
nodes = (
(276,655,l),
(106,652,l),
(96,652,l),
(-24,655,l),
(-24,625,l),
(96,628,l),
(106,628,l),
(276,625,l)
);
}
);
width = 492;
},
{
layerId = m007;
shapes = (
{
ref = h;
},
{
closed = 1;
nodes = (
(306,655,l),
(136,652,l),
(126,652,l),
(6,655,l),
(6,625,l),
(126,628,l),
(136,628,l),
(306,625,l)
);
}
);
width = 492;
},
{
layerId = m008;
shapes = (
{
ref = h;
},
{
closed = 1;
nodes = (
(340,655,l),
(180,650,l),
(110,650,l),
(10,655,l),
(10,575,l),
(110,580,l),
(180,580,l),
(340,575,l)
);
}
);
width = 530;
},
{
layerId = m009;
shapes = (
{
ref = h;
},
{
closed = 1;
nodes = (
(377,655,l),
(236,650,l),
(166,650,l),
(67,655,l),
(56,575,l),
(156,580,l),
(226,580,l),
(366,575,l)
);
}
);
width = 530;
}
);
unicode = 295;
}
{
glyphname = idotless;
kernLeft = i;
kernRight = i;
layers = (
{
anchors = (
{
name = bottom;
pos = (120,0);
},
{
name = ogonek;
pos = (190,0);
},
{
name = top;
pos = (130,500);
}
);
layerId = m002;
shapes = (
{
closed = 1;
nodes = (
(190,0,l),
(175,250,l),
(175,510,l),
(85,490,l),
(100,250,l),
(95,0,l)
);
}
);
width = 265;
},
{
anchors = (
{
name = bottom;
pos = (95,0);
},
{
name = ogonek;
pos = (155,0);
},
{
name = top;
pos = (165,500);
}
);
layerId = m003;
shapes = (
{
closed = 1;
nodes = (
(155,0,l),
(175,250,l),
(212,510,l),
(119,490,l),
(100,250,l),
(60,0,l)
);
}
);
width = 260;
},
{
anchors = (
{
name = bottom;
pos = (120,0);
},
{
name = ogonek;
pos = (119,0);
},
{
name = top;
pos = (95,500);
}
);
layerId = m006;
shapes = (
{
closed = 1;
nodes = (
(119,0,l),
(113,250,l),
(110,505,l),
(75,500,l),
(80,250,l),
(80,0,l)
);
}
);
width = 204;
},
{
anchors = (
{
name = bottom;
pos = (85,0);
},
{
name = ogonek;
pos = (84,0);
},
{
name = top;
pos = (130,500);
}
);
layerId = m007;
shapes = (
{
closed = 1;
nodes = (
(84,0,l),
(113,250,l),
(145,505,l),
(110,500,l),
(80,250,l),
(45,0,l)
);
}
);
width = 179;
},
{
anchors = (
{
name = bottom;
pos = (120,0);
},
{
name = ogonek;
pos = (190,0);
},
{
name = top;
pos = (130,500);
}
);
layerId = m008;
shapes = (
{
closed = 1;
nodes = (
(190,0,l),
(185,250,l),
(185,510,l),
(75,490,l),
(85,300,l),
(85,0,l)
);
}
);
width = 265;
},
{
anchors = (
{
name = bottom;
pos = (85,0);
},
{
name = ogonek;
pos = (155,0);
},
{
name = top;
pos = (165,500);
}
);
layerId = m009;
shapes = (
{
closed = 1;
nodes = (
(155,0,l),
(185,250,l),
(222,510,l),
(109,500,l),
(92,300,l),
(50,0,l)
);
}
);
width = 265;
}
);
metricWidth = "=i";
unicode = 305;
}
{
glyphname = IJ;
kernLeft = I;
kernRight = J;
layers = (
{
anchors = (
{
name = bottom;
pos = (85,0);
},
{
name = ogonek;
pos = (104,0);
},
{
name = top;
pos = (85,700);
},
{
name = topleft;
pos = (20,700);
}
);
layerId = m006;
shapes = (
{
closed = 1;
nodes = (
(69,500,l),
(67,0,l),
(104,0,l),
(101,250,l),
(103,700,l),
(66,700,l)
);
},
{
closed = 1;
nodes = (
(402,51,o),
(322,3,o),
(211,32,c),
(210,-8,l),
(328,-32,o),
(440,45,o),
(434,204,cs),
(425,460,l),
(425,700,l),
(385,700,l),
(398,197,ls)
);
}
);
width = 494;
},
{
anchors = (
{
name = bottom;
pos = (36,0);
},
{
name = ogonek;
pos = (55,0);
},
{
name = top;
pos = (134,700);
},
{
name = topleft;
pos = (69,700);
}
);
layerId = m007;
shapes = (
{
closed = 1;
nodes = (
(90,500,l),
(18,0,l),
(55,0,l),
(87,250,l),
(152,700,l),
(115,700,l)
);
},
{
closed = 1;
nodes = (
(360,51,o),
(273,3,o),
(166,32,c),
(160,-8,l),
(274,-32,o),
(397,45,o),
(413,204,cs),
(440,460,l),
(474,700,l),
(434,700,l),
(376,197,ls)
);
}
);
width = 500;
},
{
anchors = (
{
name = bottom;
pos = (125,0);
},
{
name = ogonek;
pos = (170,0);
},
{
name = top;
pos = (125,700);
},
{
name = topleft;
pos = (35,700);
}
);
layerId = m002;
shapes = (
{
closed = 1;
nodes = (
(85,500,l),
(80,0,l),
(170,0,l),
(165,250,l),
(170,700,l),
(80,700,l)
);
},
{
closed = 1;
nodes = (
(427,91,o),
(402,53,o),
(281,72,c),
(280,-8,l),
(398,-32,o),
(508,85,o),
(504,204,cs),
(495,460,l),
(495,700,l),
(405,700,l),
(423,197,ls)
);
}
);
width = 589;
},
{
anchors = (
{
name = bottom;
pos = (95,0);
},
{
name = ogonek;
pos = (140,0);
},
{
name = top;
pos = (193,700);
},
{
name = topleft;
pos = (103,700);
}
);
layerId = m003;
shapes = (
{
closed = 1;
nodes = (
(125,500,l),
(50,0,l),
(140,0,l),
(170,250,l),
(238,700,l),
(148,700,l)
);
},
{
closed = 1;
nodes = (
(405,91,o),
(374,53,o),
(256,72,c),
(244,-8,l),
(358,-32,o),
(485,85,o),
(498,204,cs),
(525,460,l),
(558,700,l),
(468,700,l),
(416,197,ls)
);
}
);
width = 590;
},
{
anchors = (
{
name = bottom;
pos = (125,0);
},
{
name = ogonek;
pos = (190,0);
},
{
name = top;
pos = (135,700);
},
{
name = topleft;
pos = (35,700);
}
);
layerId = m008;
shapes = (
{
closed = 1;
nodes = (
(85,500,l),
(80,0,l),
(190,0,l),
(185,250,l),
(190,700,l),
(80,700,l)
);
},
{
closed = 1;
nodes = (
(446,91,o),
(373,91,o),
(301,92,c),
(300,-8,l),
(418,-32,o),
(548,85,o),
(543,224,cs),
(535,460,l),
(535,700,l),
(425,700,l),
(442,217,ls)
);
}
);
width = 613;
},
{
anchors = (
{
name = bottom;
pos = (90,0);
},
{
name = ogonek;
pos = (155,0);
},
{
name = top;
pos = (198,700);
},
{
name = topleft;
pos = (98,700);
}
);
layerId = m009;
shapes = (
{
closed = 1;
nodes = (
(120,500,l),
(45,0,l),
(155,0,l),
(185,250,l),
(253,700,l),
(143,700,l)
);
},
{
closed = 1;
nodes = (
(424,91,o),
(351,91,o),
(279,92,c),
(264,-8,l),
(378,-32,o),
(525,85,o),
(539,224,cs),
(565,460,l),
(598,700,l),
(488,700,l),
(437,217,ls)
);
}
);
width = 613;
}
);
metricRight = "=J";
unicode = 306;
}
{
glyphname = ij;
kernLeft = i;
kernRight = g;
layers = (
{
anchors = (
{
name = bottom;
pos = (100,0);
}
);
layerId = m006;
shapes = (
{
closed = 1;
nodes = (
(129,0,l),
(123,250,l),
(120,505,l),
(85,500,l),
(90,250,l),
(90,0,l)
);
},
{
closed = 1;
nodes = (
(114,653,o),
(125,664,o),
(125,678,cs),
(125,692,o),
(114,703,o),
(100,703,cs),
(86,703,o),
(75,692,o),
(75,678,cs),
(75,664,o),
(86,653,o),
(100,653,cs)
);
},
{
closed = 1;
nodes = (
(267,-232,o),
(345,-165,o),
(342,-46,cs),
(335,250,l),
(332,505,l),
(297,500,l),
(302,250,l),
(304,32,l),
(308,-43,ls),
(313,-159,o),
(271,-187,o),
(150,-168,c),
(149,-208,l)
);
},
{
closed = 1;
nodes = (
(326,653,o),
(337,664,o),
(337,678,cs),
(337,692,o),
(326,703,o),
(312,703,cs),
(298,703,o),
(287,692,o),
(287,678,cs),
(287,664,o),
(298,653,o),
(312,653,cs)
);
}
);
width = 417;
},
{
anchors = (
{
name = bottom;
pos = (90,0);
}
);
layerId = m007;
shapes = (
{
closed = 1;
nodes = (
(70,0,l),
(99,250,l),
(132,505,l),
(96,500,l),
(66,250,l),
(31,0,l)
);
},
{
closed = 1;
nodes = (
(150,653,o),
(161,664,o),
(161,678,cs),
(161,692,o),
(150,703,o),
(136,703,cs),
(122,703,o),
(111,692,o),
(111,678,cs),
(111,664,o),
(122,653,o),
(136,653,cs)
);
},
{
closed = 1;
nodes = (
(142,-232,o),
(230,-165,o),
(243,-46,cs),
(278,250,l),
(311,505,l),
(275,500,l),
(245,250,l),
(216,32,l),
(210,-43,ls),
(198,-159,o),
(153,-187,o),
(34,-168,c),
(28,-208,l)
);
},
{
closed = 1;
nodes = (
(329,653,o),
(340,664,o),
(340,678,cs),
(340,692,o),
(329,703,o),
(315,703,cs),
(301,703,o),
(290,692,o),
(290,678,cs),
(290,664,o),
(301,653,o),
(315,653,cs)
);
}
);
width = 349;
},
{
anchors = (
{
name = bottom;
pos = (130,0);
}
);
layerId = m002;
shapes = (
{
closed = 1;
nodes = (
(190,0,l),
(175,250,l),
(175,510,l),
(85,490,l),
(100,250,l),
(95,0,l)
);
},
{
closed = 1;
nodes = (
(161,623,o),
(185,648,o),
(185,679,cs),
(185,709,o),
(161,733,o),
(131,733,cs),
(100,733,o),
(75,709,o),
(75,679,cs),
(75,648,o),
(100,623,o),
(131,623,cs)
);
},
{
closed = 1;
nodes = (
(360,-282,o),
(472,-165,o),
(466,-46,cs),
(450,250,l),
(450,510,l),
(360,490,l),
(375,250,l),
(377,32,l),
(386,-73,ls),
(393,-159,o),
(364,-187,o),
(243,-168,c),
(242,-258,l)
);
},
{
closed = 1;
nodes = (
(436,623,o),
(460,648,o),
(460,679,cs),
(460,709,o),
(436,733,o),
(406,733,cs),
(375,733,o),
(350,709,o),
(350,679,cs),
(350,648,o),
(375,623,o),
(406,623,cs)
);
}
);
width = 541;
},
{
anchors = (
{
name = bottom;
pos = (95,0);
}
);
layerId = m003;
shapes = (
{
closed = 1;
nodes = (
(155,0,l),
(175,250,l),
(212,510,l),
(119,490,l),
(100,250,l),
(60,0,l)
);
},
{
closed = 1;
nodes = (
(221,623,o),
(245,648,o),
(245,679,cs),
(245,709,o),
(221,733,o),
(191,733,cs),
(160,733,o),
(135,709,o),
(135,679,cs),
(135,648,o),
(160,623,o),
(191,623,cs)
);
},
{
closed = 1;
nodes = (
(270,-282,o),
(399,-165,o),
(409,-46,cs),
(435,250,l),
(472,510,l),
(379,490,l),
(360,250,l),
(331,32,l),
(326,-73,ls),
(321,-159,o),
(288,-187,o),
(169,-168,c),
(156,-258,l)
);
},
{
closed = 1;
nodes = (
(481,623,o),
(505,648,o),
(505,679,cs),
(505,709,o),
(481,733,o),
(451,733,cs),
(420,733,o),
(395,709,o),
(395,679,cs),
(395,648,o),
(420,623,o),
(451,623,c)
);
}
);
width = 511;
},
{
anchors = (
{
name = bottom;
pos = (130,0);
}
);
layerId = m008;
shapes = (
{
closed = 1;
nodes = (
(190,0,l),
(185,250,l),
(185,510,l),
(75,490,l),
(85,300,l),
(85,0,l)
);
},
{
closed = 1;
nodes = (
(167,603,o),
(195,633,o),
(195,669,cs),
(195,705,o),
(167,733,o),
(131,733,cs),
(95,733,o),
(65,705,o),
(65,669,cs),
(65,633,o),
(95,603,o),
(131,603,cs)
);
},
{
closed = 1;
nodes = (
(380,-282,o),
(490,-165,o),
(486,-46,cs),
(475,250,l),
(470,510,l),
(360,490,l),
(370,250,l),
(377,32,l),
(386,-73,ls),
(392,-139,o),
(355,-162,o),
(263,-148,c),
(262,-258,l)
);
},
{
closed = 1;
nodes = (
(452,603,o),
(480,633,o),
(480,669,cs),
(480,705,o),
(452,733,o),
(416,733,cs),
(380,733,o),
(350,705,o),
(350,669,cs),
(350,633,o),
(380,603,o),
(416,603,cs)
);
}
);
width = 561;
},
{
anchors = (
{
name = bottom;
pos = (95,0);
}
);
layerId = m009;
shapes = (
{
closed = 1;
nodes = (
(155,0,l),
(185,250,l),
(222,510,l),
(109,500,l),
(92,300,l),
(50,0,l)
);
},
{
closed = 1;
nodes = (
(226,603,o),
(254,633,o),
(254,669,cs),
(254,705,o),
(226,733,o),
(190,733,cs),
(154,733,o),
(124,705,o),
(124,669,cs),
(124,633,o),
(154,603,o),
(190,603,cs)
);
},
{
closed = 1;
nodes = (
(305,-282,o),
(432,-165,o),
(444,-46,cs),
(475,250,l),
(507,510,l),
(394,490,l),
(370,250,l),
(346,32,l),
(341,-73,ls),
(337,-139,o),
(297,-162,o),
(207,-148,c),
(191,-258,l)
);
},
{
closed = 1;
nodes = (
(511,603,o),
(539,633,o),
(539,669,cs),
(539,705,o),
(511,733,o),
(475,733,cs),
(439,733,o),
(409,705,o),
(409,669,cs),
(409,633,o),
(439,603,o),
(475,603,cs)
);
}
);
width = 561;
}
);
unicode = 307;
}
{
glyphname = lslash;
layers = (
{
layerId = m002;
shapes = (
{
ref = l;
},
{
closed = 1;
nodes = (
(248,437,l),
(128,388,l),
(4,348,l),
(28,283,l),
(148,332,l),
(272,372,l)
);
}
);
width = 258;
},
{
layerId = m003;
shapes = (
{
ref = l;
},
{
closed = 1;
nodes = (
(266,421,l),
(140,389,l),
(12,367,l),
(26,299,l),
(152,331,l),
(280,353,l)
);
}
);
width = 245;
},
{
layerId = m006;
shapes = (
{
ref = l;
},
{
closed = 1;
nodes = (
(198,401,l),
(105,364,l),
(10,333,l),
(22,299,l),
(115,336,l),
(210,367,l)
);
}
);
width = 208;
},
{
layerId = m007;
shapes = (
{
ref = l;
},
{
closed = 1;
nodes = (
(178,401,l),
(85,364,l),
(-10,333,l),
(2,299,l),
(95,336,l),
(190,367,l)
);
}
);
width = 173;
},
{
layerId = m008;
shapes = (
{
ref = l;
},
{
closed = 1;
nodes = (
(268,447,l),
(128,388,l),
(-16,338,l),
(8,263,l),
(148,322,l),
(292,372,l)
);
}
);
width = 258;
},
{
layerId = m009;
shapes = (
{
ref = l;
},
{
closed = 1;
nodes = (
(294,423,l),
(147,384,l),
(-3,355,l),
(11,277,l),
(158,316,l),
(307,345,l)
);
}
);
width = 258;
}
);
metricWidth = "=l";
unicode = 322;
}
{
glyphname = OE;
kernLeft = O;
kernRight = E;
layers = (
{
anchors = (
{
name = bottom;
pos = (509,0);
},
{
name = top;
pos = (509,700);
}
);
layerId = m002;
shapes = (
{
closed = 1;
nodes = (
(451,-10,o),
(513,9,o),
(569,42,c),
(570,113,l),
(522,79,o),
(465,64,o),
(413,64,cs),
(294,64,o),
(139,169,o),
(139,374,cs),
(139,561,o),
(275,636,o),
(391,636,cs),
(454,636,o),
(520,611,o),
(572,563,c),
(570,666,l),
(522,694,o),
(468,710,o),
(414,710,cs),
(242,710,o),
(50,556,o),
(50,350,cs),
(50,158,o),
(205,-10,o),
(391,-10,cs)
);
},
{
closed = 1;
nodes = (
(993,0,l),
(993,80,l),
(723,60,l),
(653,65,l),
(653,0,l)
);
},
{
closed = 1;
nodes = (
(658,0,l),
(653,250,l),
(658,700,l),
(568,700,l),
(573,500,l),
(568,0,l)
);
},
{
closed = 1;
nodes = (
(853,395,l),
(743,390,l),
(643,390,l),
(643,330,l),
(743,330,l),
(853,325,l)
);
},
{
closed = 1;
nodes = (
(963,700,l),
(633,700,l),
(633,635,l),
(723,640,l),
(963,620,l)
);
}
);
width = 1033;
},
{
anchors = (
{
name = bottom;
pos = (538,0);
},
{
name = top;
pos = (538,700);
}
);
layerId = m003;
shapes = (
{
closed = 1;
nodes = (
(429,-10,o),
(494,9,o),
(555,42,c),
(566,113,l),
(513,79,o),
(454,64,o),
(402,64,cs),
(283,64,o),
(143,169,o),
(171,374,cs),
(198,561,o),
(344,636,o),
(460,636,cs),
(523,636,o),
(586,611,o),
(631,563,c),
(643,666,l),
(599,694,o),
(548,710,o),
(494,710,cs),
(322,710,o),
(108,556,o),
(79,350,cs),
(52,158,o),
(203,-10,o),
(369,-10,cs)
);
},
{
closed = 1;
nodes = (
(973,0,l),
(984,80,l),
(711,60,l),
(642,65,l),
(633,0,l)
);
},
{
closed = 1;
nodes = (
(638,0,l),
(668,250,l),
(736,700,l),
(646,700,l),
(623,500,l),
(548,0,l)
);
},
{
closed = 1;
nodes = (
(888,395,l),
(778,390,l),
(678,390,l),
(669,330,l),
(769,330,l),
(878,325,l)
);
},
{
closed = 1;
nodes = (
(1041,700,l),
(711,700,l),
(702,635,l),
(793,640,l),
(1030,620,l)
);
}
);
width = 1048;
},
{
anchors = (
{
name = bottom;
pos = (504,0);
},
{
name = top;
pos = (504,700);
}
);
background = {
shapes = (
{
closed = 1;
nodes = (
(446,-10,o),
(508,9,o),
(564,42,c),
(565,113,l),
(517,79,o),
(460,64,o),
(408,64,cs),
(289,64,o),
(134,169,o),
(134,374,cs),
(134,561,o),
(270,636,o),
(386,636,cs),
(449,636,o),
(515,611,o),
(567,563,c),
(565,666,l),
(517,694,o),
(463,710,o),
(409,710,cs),
(237,710,o),
(45,556,o),
(45,350,cs),
(45,158,o),
(200,-10,o),
(386,-10,cs)
);
},
{
closed = 1;
nodes = (
(988,0,l),
(988,80,l),
(718,60,l),
(648,65,l),
(648,0,l)
);
},
{
closed = 1;
nodes = (
(653,0,l),
(648,250,l),
(653,700,l),
(563,700,l),
(568,500,l),
(563,0,l)
);
},
{
closed = 1;
nodes = (
(848,395,l),
(738,390,l),
(638,390,l),
(638,330,l),
(738,330,l),
(848,325,l)
);
},
{
closed = 1;
nodes = (
(958,700,l),
(628,700,l),
(628,635,l),
(718,640,l),
(958,620,l)
);
}
);
};
layerId = m006;
shapes = (
{
closed = 1;
nodes = (
(459,-10,o),
(529,12,o),
(586,49,c),
(586,81,l),
(534,41,o),
(469,18,o),
(399,18,cs),
(225,18,o),
(83,159,o),
(83,360,cs),
(83,541,o),
(222,682,o),
(395,682,cs),
(466,682,o),
(532,664,o),
(586,622,c),
(586,658,l),
(534,691,o),
(473,710,o),
(409,710,cs),
(213,710,o),
(48,556,o),
(48,350,cs),
(48,148,o),
(196,-10,o),
(386,-10,cs)
);
},
{
closed = 1;
nodes = (
(985,0,l),
(985,35,l),
(675,25,l),
(605,30,l),
(605,0,l)
);
},
{
closed = 1;
nodes = (
(619,0,l),
(616,250,l),
(618,700,l),
(581,700,l),
(584,500,l),
(582,0,l)
);
},
{
closed = 1;
nodes = (
(845,380,l),
(675,375,l),
(615,375,l),
(615,350,l),
(675,350,l),
(845,345,l)
);
},
{
closed = 1;
nodes = (
(955,700,l),
(605,700,l),
(605,670,l),
(675,675,l),
(955,665,l)
);
}
);
width = 1015;
},
{
anchors = (
{
name = bottom;
pos = (490,0);
},
{
name = top;
pos = (490,700);
}
);
background = {
shapes = (
{
closed = 1;
nodes = (
(432,-10,o),
(494,9,o),
(550,42,c),
(551,113,l),
(503,79,o),
(446,64,o),
(394,64,cs),
(275,64,o),
(120,169,o),
(120,374,cs),
(120,561,o),
(256,636,o),
(372,636,cs),
(435,636,o),
(501,611,o),
(553,563,c),
(551,666,l),
(503,694,o),
(449,710,o),
(395,710,cs),
(223,710,o),
(31,556,o),
(31,350,cs),
(31,158,o),
(186,-10,o),
(372,-10,cs)
);
},
{
closed = 1;
nodes = (
(974,0,l),
(974,80,l),
(704,60,l),
(634,65,l),
(634,0,l)
);
},
{
closed = 1;
nodes = (
(639,0,l),
(634,250,l),
(639,700,l),
(549,700,l),
(554,500,l),
(549,0,l)
);
},
{
closed = 1;
nodes = (
(834,395,l),
(724,390,l),
(624,390,l),
(624,330,l),
(724,330,l),
(834,325,l)
);
},
{
closed = 1;
nodes = (
(944,700,l),
(614,700,l),
(614,635,l),
(704,640,l),
(944,620,l)
);
}
);
};
layerId = m007;
shapes = (
{
closed = 1;
nodes = (
(408,-10,o),
(482,12,o),
(544,49,c),
(548,81,l),
(491,41,o),
(422,18,o),
(352,18,cs),
(178,18,o),
(56,159,o),
(84,360,cs),
(110,541,o),
(269,682,o),
(442,682,cs),
(513,682,o),
(576,664,o),
(624,622,c),
(629,658,l),
(582,691,o),
(524,710,o),
(460,710,cs),
(264,710,o),
(77,556,o),
(48,350,cs),
(20,148,o),
(145,-10,o),
(335,-10,cs)
);
},
{
closed = 1;
nodes = (
(936,0,l),
(941,35,l),
(629,25,l),
(560,30,l),
(556,0,l)
);
},
{
closed = 1;
nodes = (
(570,0,l),
(602,250,l),
(667,700,l),
(630,700,l),
(605,500,l),
(533,0,l)
);
},
{
closed = 1;
nodes = (
(849,380,l),
(679,375,l),
(619,375,l),
(615,350,l),
(675,350,l),
(844,345,l)
);
},
{
closed = 1;
nodes = (
(1004,700,l),
(654,700,l),
(650,670,l),
(721,675,l),
(999,665,l)
);
}
);
width = 1005;
},
{
anchors = (
{
name = bottom;
pos = (509,0);
},
{
name = top;
pos = (509,700);
}
);
background = {
shapes = (
{
closed = 1;
nodes = (
(993,0,l),
(993,80,l),
(723,60,l),
(653,65,l),
(653,0,l)
);
},
{
closed = 1;
nodes = (
(658,0,l),
(653,250,l),
(658,700,l),
(568,700,l),
(573,500,l),
(568,0,l)
);
},
{
closed = 1;
nodes = (
(853,395,l),
(743,390,l),
(643,390,l),
(643,330,l),
(743,330,l),
(853,325,l)
);
},
{
closed = 1;
nodes = (
(963,700,l),
(633,700,l),
(633,635,l),
(723,640,l),
(963,620,l)
);
},
{
closed = 1;
nodes = (
(586,155,l),
(539,106,o),
(472,84,o),
(412,84,cs),
(302,84,o),
(157,182,o),
(157,372,cs),
(157,546,o),
(284,616,o),
(392,616,cs),
(464,616,o),
(542,581,o),
(592,512,c),
(592,654,l),
(539,690,o),
(477,710,o),
(414,710,cs),
(222,710,o),
(50,566,o),
(50,350,cs),
(50,148,o),
(205,-10,o),
(391,-10,cs),
(461,-10,o),
(529,9,o),
(586,44,c)
);
}
);
};
layerId = m008;
shapes = (
{
closed = 1;
nodes = (
(461,-10,o),
(529,9,o),
(586,44,c),
(586,155,l),
(539,106,o),
(472,84,o),
(412,84,cs),
(302,84,o),
(157,182,o),
(157,372,cs),
(157,546,o),
(284,616,o),
(392,616,cs),
(464,616,o),
(542,581,o),
(592,512,c),
(592,654,l),
(539,690,o),
(477,710,o),
(414,710,cs),
(222,710,o),
(50,566,o),
(50,350,cs),
(50,148,o),
(205,-10,o),
(391,-10,cs)
);
},
{
closed = 1;
nodes = (
(1005,0,l),
(1005,100,l),
(755,90,l),
(665,95,l),
(665,0,l)
);
},
{
closed = 1;
nodes = (
(690,0,l),
(685,250,l),
(690,700,l),
(580,700,l),
(585,500,l),
(580,0,l)
);
},
{
closed = 1;
nodes = (
(865,405,l),
(775,400,l),
(655,400,l),
(655,320,l),
(775,320,l),
(865,315,l)
);
},
{
closed = 1;
nodes = (
(975,700,l),
(665,700,l),
(665,615,l),
(755,620,l),
(975,600,l)
);
}
);
width = 1045;
},
{
anchors = (
{
name = bottom;
pos = (474,0);
},
{
name = top;
pos = (572,700);
}
);
background = {
shapes = (
{
closed = 1;
nodes = (
(993,0,l),
(993,80,l),
(723,60,l),
(653,65,l),
(653,0,l)
);
},
{
closed = 1;
nodes = (
(658,0,l),
(653,250,l),
(658,700,l),
(568,700,l),
(573,500,l),
(568,0,l)
);
},
{
closed = 1;
nodes = (
(853,395,l),
(743,390,l),
(643,390,l),
(643,330,l),
(743,330,l),
(853,325,l)
);
},
{
closed = 1;
nodes = (
(963,700,l),
(633,700,l),
(633,635,l),
(723,640,l),
(963,620,l)
);
},
{
closed = 1;
nodes = (
(586,155,l),
(539,106,o),
(472,84,o),
(412,84,cs),
(302,84,o),
(157,182,o),
(157,372,cs),
(157,546,o),
(284,616,o),
(392,616,cs),
(464,616,o),
(542,581,o),
(592,512,c),
(592,654,l),
(539,690,o),
(477,710,o),
(414,710,cs),
(222,710,o),
(50,566,o),
(50,350,cs),
(50,148,o),
(205,-10,o),
(391,-10,cs),
(461,-10,o),
(529,9,o),
(586,44,c)
);
}
);
};
layerId = m009;
shapes = (
{
closed = 1;
nodes = (
(424,-10,o),
(495,9,o),
(557,44,c),
(573,155,l),
(519,106,o),
(449,84,o),
(389,84,cs),
(279,84,o),
(147,182,o),
(174,372,cs),
(199,546,o),
(335,616,o),
(443,616,cs),
(515,616,o),
(589,581,o),
(629,512,c),
(649,654,l),
(601,690,o),
(542,710,o),
(479,710,cs),
(287,710,o),
(94,566,o),
(64,350,cs),
(36,148,o),
(168,-10,o),
(354,-10,cs)
);
},
{
closed = 1;
nodes = (
(970,0,l),
(984,100,l),
(733,90,l),
(643,95,l),
(630,0,l)
);
},
{
closed = 1;
nodes = (
(655,0,l),
(685,250,l),
(753,700,l),
(643,700,l),
(620,500,l),
(545,0,l)
);
},
{
closed = 1;
nodes = (
(887,405,l),
(796,400,l),
(676,400,l),
(665,320,l),
(785,320,l),
(874,315,l)
);
},
{
closed = 1;
nodes = (
(1038,700,l),
(728,700,l),
(716,615,l),
(807,620,l),
(1024,600,l)
);
}
);
width = 1045;
}
);
metricLeft = "=O";
metricRight = "=E";
unicode = 338;
}
{
glyphname = dieresiscomb;
layers = (
{
anchors = (
{
name = _top;
pos = (195,500);
},
{
name = top;
pos = (195,713);
}
);
layerId = m002;
shapes = (
{
closed = 1;
nodes = (
(316,603,o),
(340,628,o),
(340,659,cs),
(340,689,o),
(316,713,o),
(286,713,cs),
(255,713,o),
(230,689,o),
(230,659,cs),
(230,628,o),
(255,603,o),
(286,603,cs)
);
},
{
closed = 1;
nodes = (
(136,603,o),
(160,628,o),
(160,659,cs),
(160,689,o),
(136,713,o),
(106,713,cs),
(75,713,o),
(50,689,o),
(50,659,cs),
(50,628,o),
(75,603,o),
(106,603,cs)
);
}
);
width = 390;
},
{
anchors = (
{
name = _top;
pos = (234,500);
},
{
name = top;
pos = (264,713);
}
);
layerId = m003;
shapes = (
{
closed = 1;
nodes = (
(376,603,o),
(400,628,o),
(400,659,cs),
(400,689,o),
(376,713,o),
(346,713,cs),
(315,713,o),
(290,689,o),
(290,659,cs),
(290,628,o),
(315,603,o),
(346,603,cs)
);
},
{
closed = 1;
nodes = (
(196,603,o),
(220,628,o),
(220,659,cs),
(220,689,o),
(196,713,o),
(166,713,cs),
(135,713,o),
(110,689,o),
(110,659,cs),
(110,628,o),
(135,603,o),
(166,603,cs)
);
}
);
width = 390;
},
{
anchors = (
{
name = _top;
pos = (195,500);
},
{
name = top;
pos = (195,713);
}
);
layerId = m006;
shapes = (
{
closed = 1;
nodes = (
(269,633,o),
(280,644,o),
(280,658,cs),
(280,672,o),
(269,683,o),
(255,683,cs),
(241,683,o),
(230,672,o),
(230,658,cs),
(230,644,o),
(241,633,o),
(255,633,cs)
);
},
{
closed = 1;
nodes = (
(149,633,o),
(160,644,o),
(160,658,cs),
(160,672,o),
(149,683,o),
(135,683,cs),
(121,683,o),
(110,672,o),
(110,658,cs),
(110,644,o),
(121,633,o),
(135,633,cs)
);
}
);
width = 390;
},
{
anchors = (
{
name = _top;
pos = (216,500);
},
{
name = top;
pos = (246,713);
}
);
layerId = m007;
shapes = (
{
closed = 1;
nodes = (
(314,633,o),
(325,644,o),
(325,658,cs),
(325,672,o),
(314,683,o),
(300,683,cs),
(286,683,o),
(275,672,o),
(275,658,cs),
(275,644,o),
(286,633,o),
(300,633,cs)
);
},
{
closed = 1;
nodes = (
(194,633,o),
(205,644,o),
(205,658,cs),
(205,672,o),
(194,683,o),
(180,683,cs),
(166,683,o),
(155,672,o),
(155,658,cs),
(155,644,o),
(166,633,o),
(180,633,cs)
);
}
);
width = 390;
},
{
anchors = (
{
name = _top;
pos = (195,500);
},
{
name = top;
pos = (195,713);
}
);
layerId = m008;
shapes = (
{
closed = 1;
nodes = (
(326,597,o),
(352,625,o),
(352,659,cs),
(352,692,o),
(326,719,o),
(292,719,cs),
(258,719,o),
(230,692,o),
(230,659,cs),
(230,625,o),
(258,597,o),
(292,597,cs)
);
},
{
closed = 1;
nodes = (
(133,597,o),
(160,625,o),
(160,659,cs),
(160,692,o),
(133,719,o),
(100,719,cs),
(66,719,o),
(38,692,o),
(38,659,cs),
(38,625,o),
(66,597,o),
(100,597,cs)
);
}
);
width = 390;
},
{
anchors = (
{
name = _top;
pos = (251,500);
},
{
name = top;
pos = (281,719);
}
);
layerId = m009;
shapes = (
{
closed = 1;
nodes = (
(404,597,o),
(430,625,o),
(430,659,cs),
(430,692,o),
(404,719,o),
(370,719,cs),
(336,719,o),
(308,692,o),
(308,659,cs),
(308,625,o),
(336,597,o),
(370,597,cs)
);
},
{
closed = 1;
nodes = (
(211,597,o),
(238,625,o),
(238,659,cs),
(238,692,o),
(211,719,o),
(178,719,cs),
(144,719,o),
(116,692,o),
(116,659,cs),
(116,625,o),
(144,597,o),
(178,597,cs)
);
}
);
width = 431;
}
);
unicode = 776;
}
{
glyphname = emdash;
kernLeft = dash;
kernRight = dash;
layers = (
{
layerId = m002;
shapes = (
{
closed = 1;
nodes = (
(860,290,l),
(490,285,l),
(120,290,l),
(120,210,l),
(490,215,l),
(860,210,l)
);
}
);
width = 980;
},
{
layerId = m003;
shapes = (
{
closed = 1;
nodes = (
(860,290,l),
(490,285,l),
(120,290,l),
(120,210,l),
(490,215,l),
(860,210,l)
);
}
);
width = 980;
},
{
layerId = m006;
shapes = (
{
closed = 1;
nodes = (
(860,268,l),
(490,265,l),
(120,268,l),
(120,232,l),
(490,235,l),
(860,232,l)
);
}
);
width = 980;
},
{
layerId = m007;
shapes = (
{
closed = 1;
nodes = (
(860,268,l),
(490,265,l),
(120,268,l),
(120,232,l),
(490,235,l),
(860,232,l)
);
}
);
width = 980;
},
{
layerId = m008;
shapes = (
{
closed = 1;
nodes = (
(860,300,l),
(490,295,l),
(120,300,l),
(120,200,l),
(490,205,l),
(860,200,l)
);
}
);
width = 980;
},
{
layerId = m009;
shapes = (
{
closed = 1;
nodes = (
(860,300,l),
(490,295,l),
(120,300,l),
(120,200,l),
(490,205,l),
(860,200,l)
);
}
);
width = 980;
}
);
unicode = 8212;
}
{
glyphname = trademark;
layers = (
{
layerId = m002;
shapes = (
{
closed = 1;
nodes = (
(165,649,l),
(166,707,l),
(179,709,l),
(248,701,l),
(248,750,l),
(20,750,l),
(20,701,l),
(98,709,l),
(112,707,l),
(114,649,l),
(112,500,l),
(166,500,l)
);
},
{
closed = 1;
nodes = (
(326,500,l),
(322,687,l),
(390,500,l),
(424,500,l),
(486,667,l),
(486,500,l),
(540,500,l),
(536,569,l),
(539,750,l),
(480,750,l),
(413,567,l),
(344,750,l),
(279,750,l),
(281,669,l),
(271,500,l)
);
}
);
width = 560;
},
{
layerId = m003;
shapes = (
{
closed = 1;
nodes = (
(220,649,l),
(230,707,l),
(243,709,l),
(311,701,l),
(318,750,l),
(90,750,l),
(83,701,l),
(162,709,l),
(176,707,l),
(169,649,l),
(146,500,l),
(200,500,l)
);
},
{
closed = 1;
nodes = (
(360,500,l),
(383,687,l),
(424,500,l),
(458,500,l),
(544,667,l),
(520,500,l),
(574,500,l),
(580,569,l),
(609,750,l),
(550,750,l),
(457,567,l),
(414,750,l),
(349,750,l),
(339,669,l),
(305,500,l)
);
}
);
width = 559;
},
{
layerId = m006;
shapes = (
{
closed = 1;
nodes = (
(140,649,l),
(141,724,l),
(164,726,l),
(233,718,l),
(233,750,l),
(20,750,l),
(20,718,l),
(98,726,l),
(112,724,l),
(114,649,l),
(112,500,l),
(141,500,l)
);
},
{
closed = 1;
nodes = (
(296,500,l),
(292,707,l),
(373,500,l),
(397,500,l),
(476,707,l),
(476,500,l),
(508,500,l),
(504,669,l),
(507,750,l),
(465,750,l),
(389,537,l),
(306,750,l),
(264,750,l),
(266,669,l),
(266,500,l)
);
}
);
width = 528;
},
{
layerId = m007;
shapes = (
{
closed = 1;
nodes = (
(196,649,l),
(208,724,l),
(231,726,l),
(299,718,l),
(304,750,l),
(91,750,l),
(86,718,l),
(165,726,l),
(179,724,l),
(170,649,l),
(147,500,l),
(176,500,l)
);
},
{
closed = 1;
nodes = (
(331,500,l),
(357,707,l),
(408,500,l),
(432,500,l),
(541,707,l),
(511,500,l),
(543,500,l),
(563,669,l),
(578,750,l),
(536,750,l),
(430,537,l),
(377,750,l),
(335,750,l),
(325,669,l),
(301,500,l)
);
}
);
width = 528;
},
{
layerId = m008;
shapes = (
{
closed = 1;
nodes = (
(175,649,l),
(176,697,l),
(189,699,l),
(248,691,l),
(248,750,l),
(20,750,l),
(20,691,l),
(88,699,l),
(102,697,l),
(104,649,l),
(102,500,l),
(176,500,l)
);
},
{
closed = 1;
nodes = (
(346,500,l),
(334,643,l),
(380,500,l),
(434,500,l),
(476,646,l),
(466,500,l),
(540,500,l),
(536,569,l),
(539,750,l),
(470,750,l),
(413,594,l),
(354,750,l),
(279,750,l),
(281,669,l),
(271,500,l)
);
}
);
width = 560;
},
{
layerId = m009;
shapes = (
{
closed = 1;
nodes = (
(231,649,l),
(239,697,l),
(252,699,l),
(310,691,l),
(319,750,l),
(91,750,l),
(82,691,l),
(151,699,l),
(165,697,l),
(160,649,l),
(137,500,l),
(211,500,l)
);
},
{
closed = 1;
nodes = (
(381,500,l),
(390,643,l),
(415,500,l),
(469,500,l),
(532,646,l),
(501,500,l),
(575,500,l),
(581,569,l),
(610,750,l),
(541,750,l),
(462,594,l),
(425,750,l),
(350,750,l),
(340,669,l),
(306,500,l)
);
}
);
width = 560;
}
);
unicode = 8482;
}
{
glyphname = U.ss02;
kernLeft = U;
kernRight = I;
layers = (
{
anchors = (
{
name = bottom;
pos = (350,0);
},
{
name = ogonek;
pos = (633,0);
},
{
name = top;
pos = (350,650);
},
{
name = topright;
pos = (679,700);
}
);
background = {
shapes = (
{
closed = 1;
nodes = (
(627,700,l),
(591,700,l),
(596,315,ls),
(599,111,o),
(493,19,o),
(357,19,cs),
(199,19,o),
(85,116,o),
(91,325,cs),
(101,700,l),
(65,700,l),
(60,300,ls),
(57,95,o),
(178,-10,o),
(339,-10,cs),
(487,-10,o),
(627,83,o),
(627,302,cs)
);
}
);
};
layerId = m006;
shapes = (
{
closed = 1;
nodes = (
(591,700,l),
(596,315,ls),
(599,111,o),
(493,19,o),
(337,19,cs),
(199,19,o),
(85,116,o),
(91,325,cs),
(101,700,l),
(65,700,l),
(60,300,ls),
(57,95,o),
(178,-10,o),
(329,-10,cs),
(470,-10,o),
(553,42,o),
(600,171,c),
(602,171,l),
(596,0,l),
(633,0,l),
(625,250,l),
(632,700,l)
);
}
);
width = 699;
},
{
anchors = (
{
name = bottom;
pos = (312,0);
},
{
name = ogonek;
pos = (583,0);
},
{
name = top;
pos = (400,650);
},
{
name = topright;
pos = (736,700);
}
);
layerId = m007;
shapes = (
{
closed = 1;
nodes = (
(640,700,l),
(591,315,ls),
(565,111,o),
(436,19,o),
(310,19,cs),
(152,19,o),
(52,116,o),
(87,325,cs),
(150,700,l),
(114,700,l),
(53,300,ls),
(22,95,o),
(127,-10,o),
(288,-10,cs),
(398,-10,o),
(501,36,o),
(567,157,c),
(569,156,l),
(546,0,l),
(583,0,l),
(615,250,l),
(680,700,l)
);
}
);
width = 698;
},
{
anchors = (
{
name = bottom;
pos = (367,0);
},
{
name = ogonek;
pos = (649,0);
},
{
name = top;
pos = (367,650);
},
{
name = topright;
pos = (714,700);
}
);
layerId = m002;
shapes = (
{
closed = 1;
nodes = (
(566,700,l),
(576,320,ls),
(581,126,o),
(463,64,o),
(357,64,cs),
(269,64,o),
(161,111,o),
(166,320,cs),
(176,700,l),
(85,700,l),
(80,300,ls),
(77,95,o),
(198,-10,o),
(339,-10,cs),
(428,-10,o),
(520,33,o),
(570,120,c),
(574,119,l),
(569,0,l),
(649,0,l),
(644,250,l),
(654,700,l)
);
}
);
width = 734;
},
{
anchors = (
{
name = bottom;
pos = (335,0);
},
{
name = ogonek;
pos = (619,0);
},
{
name = top;
pos = (423,650);
},
{
name = topright;
pos = (762,700);
}
);
layerId = m003;
shapes = (
{
closed = 1;
nodes = (
(629,700,l),
(586,320,ls),
(564,126,o),
(447,64,o),
(341,64,cs),
(243,64,o),
(141,111,o),
(176,320,cs),
(239,700,l),
(148,700,l),
(87,300,ls),
(56,95,o),
(161,-10,o),
(322,-10,cs),
(413,-10,o),
(494,29,o),
(551,109,c),
(555,108,l),
(539,0,l),
(619,0,l),
(649,250,l),
(717,700,l)
);
}
);
width = 739;
},
{
anchors = (
{
name = bottom;
pos = (375,0);
},
{
name = ogonek;
pos = (670,0);
},
{
name = top;
pos = (375,650);
},
{
name = topright;
pos = (730,700);
}
);
layerId = m008;
shapes = (
{
closed = 1;
nodes = (
(556,700,l),
(561,320,ls),
(563,186,o),
(463,94,o),
(357,94,cs),
(259,94,o),
(172,151,o),
(176,320,cs),
(186,700,l),
(75,700,l),
(70,300,ls),
(67,95,o),
(178,-10,o),
(339,-10,cs),
(428,-10,o),
(507,35,o),
(555,122,c),
(561,121,l),
(560,0,l),
(670,0,l),
(665,250,l),
(670,700,l)
);
}
);
width = 750;
},
{
anchors = (
{
name = bottom;
pos = (340,0);
},
{
name = ogonek;
pos = (635,0);
},
{
name = top;
pos = (428,650);
},
{
name = topright;
pos = (793,700);
}
);
layerId = m009;
shapes = (
{
closed = 1;
nodes = (
(619,700,l),
(571,320,ls),
(551,166,o),
(451,94,o),
(345,94,cs),
(247,94,o),
(158,151,o),
(186,320,cs),
(249,700,l),
(138,700,l),
(77,300,ls),
(46,95,o),
(161,-10,o),
(322,-10,cs),
(409,-10,o),
(481,25,o),
(534,97,c),
(539,97,l),
(525,0,l),
(635,0,l),
(665,250,l),
(733,700,l)
);
}
);
width = 750;
}
);
metricLeft = "=U";
metricRight = "=I";
}
{
glyphname = e.ss01;
kernLeft = o;
kernRight = c;
layers = (
{
anchors = (
{
name = bottom;
pos = (258,5);
},
{
name = ogonek;
pos = (429,70);
},
{
name = top;
pos = (263,490);
}
);
layerId = m008;
shapes = (
{
closed = 1;
nodes = (
(148,116,o),
(148,261,cs),
(148,437,o),
(275,428,o),
(396,390,c),
(408,494,l),
(374,505,o),
(339,510,o),
(306,510,cs),
(172,510,o),
(45,389,o),
(45,233,cs),
(45,100,o),
(125,-10,o),
(244,-10,cs),
(294,-10,o),
(341,10,o),
(429,70,c),
(404,125,l),
(223,35,o)
);
},
{
closed = 1;
nodes = (
(340,298,l),
(90,291,l),
(90,215,l),
(340,212,l)
);
}
);
width = 474;
},
{
anchors = (
{
name = bottom;
pos = (258,5);
},
{
name = ogonek;
pos = (426,52);
},
{
name = top;
pos = (263,490);
}
);
layerId = m006;
shapes = (
{
closed = 1;
nodes = (
(93,66,o),
(93,251,cs),
(93,437,o),
(225,520,o),
(386,452,c),
(398,490,l),
(363,504,o),
(327,511,o),
(293,511,cs),
(166,511,o),
(55,416,o),
(55,223,cs),
(55,100,o),
(145,-10,o),
(244,-10,cs),
(294,-10,o),
(341,0,o),
(426,52,c),
(417,75,l),
(231,-40,o)
);
},
{
closed = 1;
nodes = (
(330,273,l),
(70,266,l),
(70,240,l),
(330,237,l)
);
}
);
width = 471;
},
{
anchors = (
{
name = bottom;
pos = (193,5);
},
{
name = ogonek;
pos = (367,52);
},
{
name = top;
pos = (266,490);
}
);
layerId = m007;
shapes = (
{
closed = 1;
nodes = (
(36,66,o),
(62,251,cs),
(88,437,o),
(252,520,o),
(385,462,c),
(402,500,l),
(373,510,o),
(344,515,o),
(315,515,cs),
(177,515,o),
(46,405,o),
(20,223,cs),
(3,100,o),
(77,-10,o),
(176,-10,cs),
(226,-10,o),
(275,0,o),
(367,52,c),
(361,75,l),
(159,-40,o)
);
},
{
closed = 1;
nodes = (
(310,283,l),
(50,276,l),
(50,250,l),
(310,247,l)
);
}
);
width = 432;
},
{
anchors = (
{
name = bottom;
pos = (258,5);
},
{
name = ogonek;
pos = (429,60);
},
{
name = top;
pos = (263,490);
}
);
layerId = m002;
shapes = (
{
closed = 1;
nodes = (
(138,116,o),
(138,271,cs),
(138,457,o),
(285,448,o),
(396,400,c),
(408,484,l),
(374,499,o),
(339,510,o),
(296,510,cs),
(172,510,o),
(55,389,o),
(55,243,cs),
(55,100,o),
(125,-10,o),
(244,-10,cs),
(294,-10,o),
(341,0,o),
(429,60,c),
(409,100,l),
(233,5,o)
);
},
{
closed = 1;
nodes = (
(350,293,l),
(90,286,l),
(90,220,l),
(350,217,l)
);
}
);
width = 474;
},
{
anchors = (
{
name = bottom;
pos = (191,0);
},
{
name = ogonek;
pos = (400,50);
},
{
name = top;
pos = (311,500);
}
);
layerId = m003;
shapes = (
{
closed = 1;
nodes = (
(112,116,o),
(133,261,cs),
(160,457,o),
(296,448,o),
(411,390,c),
(435,474,l),
(403,495,o),
(359,510,o),
(326,510,cs),
(212,510,o),
(68,389,o),
(46,233,cs),
(27,100,o),
(111,-10,o),
(220,-10,cs),
(250,-10,o),
(300,-10,o),
(400,50,c),
(382,90,l),
(193,15,o)
);
},
{
closed = 1;
nodes = (
(340,288,l),
(80,281,l),
(80,215,l),
(340,212,l)
);
}
);
width = 452;
},
{
anchors = (
{
name = bottom;
pos = (218,5);
},
{
name = ogonek;
pos = (404,70);
},
{
name = top;
pos = (313,490);
}
);
layerId = m009;
shapes = (
{
closed = 1;
nodes = (
(129,116,o),
(150,261,cs),
(174,437,o),
(300,428,o),
(416,390,c),
(442,494,l),
(410,505,o),
(376,510,o),
(343,510,cs),
(209,510,o),
(65,389,o),
(43,233,cs),
(24,100,o),
(108,-10,o),
(207,-10,cs),
(257,-10,o),
(307,10,o),
(404,70,c),
(386,125,l),
(193,35,o)
);
},
{
closed = 1;
nodes = (
(340,298,l),
(90,291,l),
(90,215,l),
(340,212,l)
);
}
);
width = 474;
}
);
metricLeft = "=c";
metricRight = "=c";
}
